<?xml version="1.0" encoding="utf-8"?>
<!-- Generator: Adobe Illustrator 27.8.1, SVG Export Plug-In . SVG Version: 6.00 Build 0)  -->
<svg version="1.1" id="Layer_1" xmlns="http://www.w3.org/2000/svg" xmlns:xlink="http://www.w3.org/1999/xlink" x="0px" y="0px"
	 viewBox="0 0 708.66 708.66" style="enable-background:new 0 0 708.66 708.66;" xml:space="preserve">
<style type="text/css">
	.st0{clip-path:url(#SVGID_00000036953782783209500600000004134944102576020361_);}
	.st1{fill:#FFFFFF;}
	.st2{clip-path:url(#SVGID_00000106829872243559287150000008302762872863865015_);}
	.st3{clip-path:url(#SVGID_00000159465322073983162440000017614994408340204945_);}
	.st4{clip-path:url(#SVGID_00000098943314985469670330000010121041258305756833_);}
	.st5{clip-path:url(#SVGID_00000181084311839865790210000017231212355680393140_);}
	.st6{clip-path:url(#SVGID_00000166656751828756208330000016328263647553401242_);}
	.st7{clip-path:url(#SVGID_00000176045517521418033480000008906404851290514102_);}
	.st8{clip-path:url(#SVGID_00000106137810920358093620000003977715260572439199_);}
</style>
<rect x="-740.81" y="-25.28" width="2204.22" height="772.16"/>
<g>
	<path d="M-2113.44,339.9c-0.18,0.09-1.76,0.34-2.94,0.34c-0.27-0.2-0.52-0.47-0.82-0.9h-0.09c-1.47,0.84-1.81,0.9-2.53,0.9
		c-1.09,0-2.45-1.43-2.45-2.53c0-1.36,0.02-2.78,0.04-3.94l-0.81-0.04c0-0.48,0.02-1,0.04-1.47c0.73-0.04,3.39-0.11,3.62-0.12
		c0.04,0,0.05,0.04,0.05,0.07c0,1.25-0.05,2.83-0.05,4.14c0,0.52-0.02,1.15,0.21,1.54c0.22,0.34,0.47,0.36,0.7,0.36
		c0.3,0,0.73-0.13,1.07-0.38c0.02-1.22,0-3.01,0-4.09l-0.88-0.04c0.02-0.5,0.02-1.06,0.04-1.52c0.66-0.02,3.49-0.07,3.76-0.07
		c0.02,0,0.04,0.05,0.04,0.07c-0.02,1.9-0.05,4.05-0.05,6.11c0,0.07,0.02,0.11,0.07,0.11l1-0.04
		C-2113.42,338.88-2113.44,339.44-2113.44,339.9z"/>
	<path d="M-2112.92,333.99c0-0.47,0.02-1,0.02-1.45c0.82-0.11,3.53-0.52,3.64-0.52c0.02,0,0.04,0.02,0.04,0.04
		c0.07,0.34,0.11,0.68,0.16,1.02l0.07,0.02c1.65-0.97,1.95-1.09,2.69-1.09c0.95,0,1.67,0.93,1.83,1.16h0.09
		c1.77-1.02,2.1-1.13,2.78-1.13c0.77,0,1.4,0.43,1.86,1.02c0.3,0.39,0.54,1.04,0.54,1.59c0,1.27-0.04,2.72-0.05,3.87l0.93,0.04
		c0,0.48-0.02,1.02-0.04,1.51c-0.63,0-1.52,0-2.2,0c-0.75,0-1.58,0.02-2.2,0.02c0-0.48,0-1.04,0-1.51l0.63-0.05
		c0.04,0,0.07-0.04,0.07-0.07c0-0.93,0-2.19,0-3.08c0-0.32-0.02-0.61-0.13-0.86c-0.14-0.29-0.38-0.39-0.7-0.39
		c-0.36,0-0.9,0.21-1.25,0.43c0,1.15-0.02,2.87-0.04,3.98l0.72,0.04c0,0.48,0,1.02-0.02,1.51c-0.63,0-1.5,0-2.24,0
		c-0.66,0-1.4,0.02-1.92,0.02c0-0.5,0.02-1.04,0.02-1.51l0.65-0.05c0.05-0.02,0.07-0.05,0.07-0.09c0-0.9,0-2.17,0-3.22
		c0-0.3-0.02-0.59-0.13-0.81c-0.11-0.25-0.34-0.32-0.61-0.32c-0.36,0-0.95,0.23-1.33,0.52c-0.02,1.04-0.04,2.87-0.04,3.92l0.72,0.04
		c0,0.48,0,1.02,0,1.51c-0.68,0-1.56,0-2.31,0c-0.68,0-1.56,0-2.22,0c0-0.48,0-1.04,0.02-1.51l0.9-0.04c0.05,0,0.07-0.04,0.07-0.09
		v-4.41L-2112.92,333.99z"/>
	<path d="M-2097.93,334.04c0-0.48,0.04-1.06,0.04-1.52c0.9-0.13,4.08-0.52,4.21-0.52c0.04,0,0.04,0.02,0.04,0.05
		c0,2.06-0.02,4.68-0.02,6.75c-0.02,1.15-0.11,1.68-0.52,2.54c-0.63,1.38-1.65,2.78-2.78,3.35c-0.59,0-1.72-0.88-1.77-1.38
		c0.65-0.32,1.34-0.74,1.65-1.27c0.38-0.68,0.56-1.49,0.54-3.4l-0.04-4.55L-2097.93,334.04z M-2093.85,329.24
		c0,0.98-0.7,1.65-1.68,1.65c-0.73,0-1.58-0.65-1.58-1.58c0-0.77,0.68-1.52,1.67-1.52
		C-2094.37,327.79-2093.85,328.54-2093.85,329.24z"/>
	<path d="M-2087.68,332c1.11,0,1.95,0.39,2.44,0.95c0.57,0.68,0.91,1.61,0.91,2.76c-0.02,0.27-0.82,1.04-0.97,1.06
		c-0.47,0.05-2.31,0.05-3.91,0.05c0.04,0.59,0.25,0.93,0.48,1.16c0.41,0.39,0.88,0.43,1.34,0.43c0.77,0,1.93-0.29,2.53-0.5
		c0.13,0.47,0.27,1.04,0.34,1.49c-1.06,0.48-2.63,0.84-3.49,0.84c-2.38,0-4.19-1.16-4.19-3.69
		C-2092.2,334.01-2090.37,332-2087.68,332z M-2088.89,333.97c-0.21,0.36-0.34,0.7-0.32,1.42c0.63,0,1.5-0.02,2.02-0.04
		c0.11,0,0.16-0.07,0.16-0.2c0-0.38-0.07-0.84-0.2-1.11c-0.16-0.32-0.43-0.54-0.81-0.54
		C-2088.33,333.5-2088.63,333.58-2088.89,333.97z"/>
	<path d="M-2081.9,339.7c-0.57-0.5-0.63-0.91-0.63-1.42c0-1,0.02-1.92,0.02-2.13c0-0.38,0.02-2.11,0.02-2.35c-0.3,0-0.81,0-1.25,0
		c0-0.5,0.02-1.04,0.05-1.52c0.38-0.04,0.81-0.07,1.16-0.11c0.07,0,0.13-0.05,0.13-0.14c0.05-0.47,0.09-1.06,0.14-1.49
		c0.9-0.45,2.62-0.95,2.67-0.95c0.04,0,0.05,0.02,0.05,0.07c-0.02,0.39-0.04,2.02-0.05,2.51c0.91,0,1.92,0,2.76-0.02
		c0,0.52-0.02,1.13-0.07,1.67c-0.75,0-1.86-0.02-2.69-0.02c0,0.16-0.02,0.52-0.02,1.51c0,0.73,0,1.43,0,2.24
		c0,0.5,0.43,0.81,0.82,0.81c0.72,0,1.4-0.12,1.95-0.27c0.09,0.48,0.16,1.04,0.2,1.51c-1.24,0.48-2.54,0.65-3.87,0.65
		C-2080.98,340.24-2081.43,340.12-2081.9,339.7z"/>
	<path d="M-2076.16,334.01c0-0.5,0.02-1.02,0.02-1.47c0.9-0.07,3.55-0.52,3.66-0.52c0.04,0,0.04,0.02,0.04,0.04
		c0.09,0.38,0.16,0.75,0.25,1.13l0.09,0.02c1.74-1.08,2.13-1.2,2.96-1.2c0.77,0,1.51,0.68,1.86,1.29c0.34,0.56,0.41,1.11,0.41,1.59
		c0,1.02-0.05,2.51-0.07,3.65l0.9,0.04c0,0.48,0,1.02-0.02,1.49c-0.68,0-1.56,0-2.31,0c-0.77,0-1.61,0.02-2.24,0.02
		c0-0.48,0-1.02,0.02-1.49l0.72-0.04c0.04-0.02,0.05-0.04,0.07-0.09c0.02-0.72,0-1.72,0-2.42c-0.02-0.82-0.02-1.25-0.14-1.52
		c-0.18-0.34-0.41-0.39-0.68-0.39c-0.39,0-1,0.29-1.43,0.63c-0.02,1.04-0.05,2.76-0.05,3.78l0.77,0.05c0,0.48,0,1-0.02,1.47
		c-0.63,0-1.52,0-2.24,0c-0.75,0-1.67,0.02-2.36,0.02c0-0.48,0-1.02,0.02-1.49l0.88-0.04c0.05-0.02,0.07-0.05,0.07-0.09v-4.43
		L-2076.16,334.01z"/>
	<path d="M-2065.44,334.01c0-0.48,0.02-1.04,0.04-1.52c0.97-0.07,3.87-0.48,4.01-0.48c0.04,0,0.04,0.02,0.04,0.05
		c-0.02,1.93-0.05,4.69-0.05,6.48l0.99,0.04c0,0.5,0,1,0,1.49c-0.68,0-1.7,0-2.47,0c-0.75,0-1.7,0.02-2.44,0.02
		c0-0.48,0-1.02,0.02-1.49l0.95-0.04c0.05-0.02,0.07-0.05,0.07-0.09v-4.41L-2065.44,334.01z M-2061.41,329.33
		c0,0.97-0.79,1.61-1.68,1.61c-0.77,0-1.56-0.66-1.56-1.58c0-0.75,0.66-1.49,1.65-1.49
		C-2061.97,327.88-2061.41,328.58-2061.41,329.33z"/>
	<path d="M-2054.57,332c0.65,0,1.56,0.18,1.99,0.43c0,0.56-0.56,1.81-0.91,2.01c-0.23-0.09-1.15-0.54-1.86-0.54
		c-0.39,0-0.73,0.13-1,0.56c-0.27,0.47-0.36,1-0.36,1.81c0,0.86,0.23,1.34,0.56,1.72c0.3,0.36,0.84,0.43,1.2,0.43
		c0.72,0,1.54-0.27,2.08-0.48c0.13,0.47,0.27,1,0.34,1.43c-1.16,0.63-2.58,0.88-3.31,0.88c-2.2,0-3.89-1.36-3.89-3.57
		C-2059.75,334.13-2057.74,332-2054.57,332z M-2053.44,327.74c0.29,0.21,0.61,0.52,0.84,0.79c-0.63,0.7-1.54,1.79-2.19,2.53
		c-0.34,0-0.79,0-1.15-0.02c-0.66-0.79-1.45-1.7-2.17-2.51c0.29-0.29,0.61-0.56,0.91-0.77c0.56,0.54,1.2,1.13,1.85,1.72
		C-2054.68,328.88-2054.01,328.26-2053.44,327.74z"/>
	<path d="M-2052.04,338.59l0.88-0.05c0.04,0,0.05-0.05,0.05-0.07c0-2.74,0.02-6.23,0.02-8.92l-1.15-0.04c0-0.48,0.02-1.02,0.02-1.49
		c1-0.13,3.87-0.5,4.05-0.5c0.04,0,0.05,0.02,0.05,0.07c0,2.08-0.04,4.73-0.05,7.52c0.3,0,0.63-0.02,0.95-0.05
		c0.3-0.27,0.77-0.72,1.24-1.27c0.04-0.04,0-0.05-0.04-0.05l-0.66-0.04c0-0.5,0-1.04,0.02-1.52c0.81,0,1.74,0,2.51,0
		c0.5-0.02,1.06-0.02,1.56-0.02c0,0.48-0.02,1.02-0.04,1.51l-0.65,0.05c-0.9,0.73-1.49,1.24-1.97,1.61v0.13
		c0.36,0.23,0.84,0.61,1.27,1.67c0.23,0.56,0.45,1.02,0.57,1.25c0.07,0.11,0.18,0.16,0.27,0.16l0.9,0.04c0,0.48,0,1.02-0.02,1.49
		c-0.66,0-3.33,0.04-3.57,0.04c-0.23-0.47-0.47-1.2-0.77-2.11c-0.27-0.81-0.61-1.45-0.9-1.45c-0.21,0-0.45,0-0.68,0
		c-0.02,0.57-0.02,1.43-0.04,2.01l0.66,0.05c0,0.48,0,1-0.02,1.47c-0.59,0-1.47,0-2.2,0c-0.73,0-1.58,0.02-2.31,0.02
		C-2052.08,339.6-2052.06,339.06-2052.04,338.59z"/>
	<path d="M-2036.9,339.45c-1.07,0.54-1.92,0.79-2.6,0.79c-0.95,0-2.33-0.95-2.33-2.08c0-1,1.18-2.71,4.03-2.71c0.39,0,0.68,0,0.86,0
		c0.05-0.9-0.27-1.42-1.07-1.42c-0.61,0-1.56,0.5-2.26,1c-0.34-0.39-0.66-0.84-0.95-1.29c1.29-1.04,2.63-1.76,4.34-1.76
		c1.38,0,2.74,1.16,2.74,2.69c0,1.18-0.02,2.87-0.04,3.64c0,0.11,0,0.14,0.09,0.14l0.95-0.05c0,0.47,0.02,1,0,1.47
		c-0.29,0.11-1.56,0.36-2.99,0.36c-0.18-0.16-0.41-0.45-0.68-0.79H-2036.9z M-2038.15,338.52c0.47,0,0.93-0.23,1.2-0.39
		c0.04-0.04,0.04-0.09,0.04-0.11c0-0.43,0-0.77,0-1.24c-0.11-0.02-0.25-0.02-0.38-0.02c-1.16,0-1.68,0.52-1.68,1.06
		C-2038.98,338.25-2038.51,338.52-2038.15,338.52z"/>
</g>
<g>
	<path d="M-2028.24,339.26c-0.82-0.7-1.33-1.67-1.33-3.05c0-1.42,0.63-2.69,1.7-3.47c0.79-0.59,1.86-0.86,2.94-0.86
		c0.95,0,1.76,0.21,2.45,0.64c0.91,0.59,1.61,1.72,1.61,3.31c0,1.58-0.86,2.92-1.92,3.6c-0.7,0.45-1.59,0.68-2.62,0.68
		C-2026.44,340.12-2027.52,339.87-2028.24,339.26z M-2024.38,338.29c0.34-0.47,0.43-1.18,0.43-2.38c0-1.09-0.14-1.65-0.32-2.08
		c-0.2-0.38-0.52-0.56-0.84-0.56s-0.61,0.13-0.84,0.45c-0.29,0.43-0.47,1.11-0.47,2.2c0,1.33,0.16,1.93,0.41,2.31
		c0.23,0.36,0.5,0.48,0.82,0.48C-2024.89,338.72-2024.6,338.63-2024.38,338.29z"/>
	<path d="M-2019.88,338.49l0.84-0.04c0.05-0.02,0.07-0.04,0.07-0.07c0-1.45,0-3.12,0-4.52l-1.06-0.05c0-0.48,0.02-1,0.04-1.47
		c0.81-0.09,3.48-0.47,3.57-0.47c0.02,0,0.04,0,0.04,0.04c0.05,0.77,0.13,1.52,0.18,2.29l0.11,0.02c1.11-2.11,1.52-2.35,2.42-2.35
		c0.45,0,0.93,0.11,1.29,0.23c0,0.84-0.5,2.29-0.84,2.6c-0.16-0.03-0.7-0.18-1.13-0.18c-0.18,0-0.34,0.02-0.52,0.16
		c-0.32,0.27-0.59,0.59-0.93,1.24c-0.21,0.43-0.25,1-0.27,1.51c0,0.3,0,0.72,0,0.98l1.47,0.05c0,0.48,0,0.98-0.04,1.47
		c-0.75,0-1.86,0-2.71,0c-0.79,0-1.79,0.02-2.54,0.02C-2019.9,339.47-2019.9,338.93-2019.88,338.49z"/>
	<path d="M-2010.07,337.73c-0.82-0.36-1.93-1.2-1.93-2.58c0-1.93,1.92-3.28,4.17-3.28c0.79,0,1.54,0.11,1.74,0.14
		c0.18,0.04,0.3,0.07,0.39,0.05c0.84-0.04,2.22-0.11,2.69-0.14c0.05,0.5,0.05,1.11,0.02,1.61c-0.36,0.02-1,0.02-1.43,0.02
		l-0.04,0.07c0.21,0.29,0.38,0.77,0.38,1.29c0,0.61-0.23,1.38-0.81,1.99c-0.59,0.59-1.74,1.16-3.6,1.11
		c-0.23,0.2-0.38,0.43-0.38,0.59c0,0.38,0.34,0.43,1.79,0.48c1.95,0.05,2.49,0.14,3.15,0.61c0.61,0.43,0.84,0.77,0.84,1.67
		c0,1.18-0.9,2.2-2.38,2.72c-0.86,0.32-1.93,0.48-3.06,0.48c-2.53,0-4.03-0.77-4.03-2.13c0-0.23,0.11-0.38,0.38-0.56
		c0.79-0.54,1.29-0.82,1.7-1.09v-0.11c-0.68-0.29-1.36-0.63-1.36-1.63c0-0.2,0.07-0.25,1.77-1.2V337.73z M-2007.23,341.26
		c-0.84-0.05-1.49-0.13-1.86-0.14c-0.3,0.38-0.48,0.7-0.48,1.15c0,0.63,0.77,0.95,1.63,0.95c0.59,0,1.15-0.11,1.51-0.34
		c0.34-0.2,0.52-0.54,0.52-0.91C-2005.93,341.48-2006.12,341.33-2007.23,341.26z M-2007.99,336.73c0.65,0,1.02-0.61,1.02-1.93
		c0-0.63-0.07-0.95-0.27-1.29c-0.14-0.27-0.45-0.36-0.75-0.36c-0.65,0-1.09,0.65-1.09,1.74
		C-2009.08,336.35-2008.61,336.73-2007.99,336.73z"/>
	<path d="M-1997.86,339.33c-1.08,0.54-1.92,0.79-2.6,0.79c-0.95,0-2.33-0.95-2.33-2.08c0-1,1.18-2.71,4.03-2.71
		c0.39,0,0.68,0,0.86,0c0.05-0.9-0.27-1.42-1.07-1.42c-0.61,0-1.56,0.5-2.26,1c-0.34-0.39-0.66-0.84-0.95-1.29
		c1.29-1.04,2.63-1.76,4.34-1.76c1.38,0,2.74,1.16,2.74,2.69c0,1.18-0.02,2.87-0.04,3.64c0,0.11,0,0.14,0.09,0.14l0.95-0.05
		c0,0.47,0.02,1,0,1.47c-0.29,0.11-1.56,0.36-2.99,0.36c-0.18-0.16-0.41-0.45-0.68-0.79H-1997.86z M-1999.12,338.4
		c0.47,0,0.93-0.23,1.2-0.39c0.04-0.04,0.04-0.09,0.04-0.11c0-0.43,0-0.77,0-1.24c-0.11-0.02-0.25-0.02-0.38-0.02
		c-1.16,0-1.68,0.52-1.68,1.06C-1999.94,338.13-1999.47,338.4-1999.12,338.4z"/>
	<path d="M-1993.61,333.88c0-0.5,0.02-1.02,0.02-1.47c0.9-0.07,3.55-0.52,3.66-0.52c0.04,0,0.04,0.02,0.04,0.04
		c0.09,0.38,0.16,0.75,0.25,1.13l0.09,0.02c1.74-1.08,2.13-1.2,2.96-1.2c0.77,0,1.51,0.68,1.86,1.29c0.34,0.56,0.41,1.11,0.41,1.59
		c0,1.02-0.05,2.51-0.07,3.65l0.9,0.04c0,0.48,0,1.02-0.02,1.49c-0.68,0-1.56,0-2.31,0c-0.77,0-1.61,0.02-2.24,0.02
		c0-0.48,0-1.02,0.02-1.49l0.72-0.04c0.04-0.02,0.05-0.04,0.07-0.09c0.02-0.72,0-1.72,0-2.42c-0.02-0.82-0.02-1.25-0.14-1.52
		c-0.18-0.34-0.41-0.39-0.68-0.39c-0.39,0-1,0.29-1.43,0.63c-0.02,1.04-0.05,2.76-0.05,3.78l0.77,0.05c0,0.48,0,1-0.02,1.47
		c-0.63,0-1.52,0-2.24,0c-0.75,0-1.67,0.02-2.37,0.02c0-0.48,0-1.02,0.02-1.49l0.88-0.04c0.05-0.02,0.07-0.05,0.07-0.09v-4.43
		L-1993.61,333.88z"/>
	<path d="M-1982.9,333.88c0-0.48,0.02-1.04,0.04-1.52c0.97-0.07,3.87-0.48,4.01-0.48c0.04,0,0.04,0.02,0.04,0.05
		c-0.02,1.93-0.05,4.69-0.05,6.48l0.99,0.04c0,0.5,0,1,0,1.49c-0.68,0-1.7,0-2.47,0c-0.75,0-1.7,0.02-2.44,0.02
		c0-0.48,0-1.02,0.02-1.49l0.95-0.04c0.05-0.02,0.07-0.05,0.07-0.09v-4.41L-1982.9,333.88z M-1978.87,329.21
		c0,0.97-0.79,1.61-1.68,1.61c-0.77,0-1.56-0.66-1.56-1.58c0-0.75,0.66-1.49,1.65-1.49
		C-1979.42,327.75-1978.87,328.45-1978.87,329.21z"/>
	<path d="M-1969.19,337.03c-0.21,0.95-0.47,1.95-0.72,2.92c-0.29,0-2.02-0.02-3.22-0.02h-2.28c-0.27,0-1.27,0-1.58,0
		c-0.14-0.38-0.32-0.93-0.45-1.34c1.59-1.72,2.88-3.01,4.8-4.98l-0.02-0.07c-0.38,0-1.52-0.02-1.85-0.02
		c-0.32,0-0.39,0.12-0.47,0.29l-0.52,1.42c-0.57-0.09-1.16-0.2-1.65-0.3c0.18-0.97,0.38-1.95,0.59-2.9c0.2,0,0.86,0.02,1.97,0.04
		c1.4,0,3.05,0,4.68,0c0.2,0.61,0.38,1.31,0.48,1.92c-0.73,0.88-3.8,3.71-4.53,4.39l0.04,0.07c0.34,0,1.02,0,1.92-0.02
		c0.32-0.02,0.54-0.14,0.63-0.34l0.57-1.42C-1970.23,336.77-1969.67,336.91-1969.19,337.03z"/>
	<path d="M-1963.51,339.33c-1.08,0.54-1.92,0.79-2.6,0.79c-0.95,0-2.33-0.95-2.33-2.08c0-1,1.18-2.71,4.03-2.71
		c0.39,0,0.68,0,0.86,0c0.05-0.9-0.27-1.42-1.07-1.42c-0.61,0-1.56,0.5-2.26,1c-0.34-0.39-0.66-0.84-0.95-1.29
		c1.29-1.04,2.63-1.76,4.34-1.76c1.38,0,2.74,1.16,2.74,2.69c0,1.18-0.02,2.87-0.04,3.64c0,0.11,0,0.14,0.09,0.14l0.95-0.05
		c0,0.47,0.02,1,0,1.47c-0.29,0.11-1.56,0.36-2.99,0.36c-0.18-0.16-0.41-0.45-0.68-0.79H-1963.51z M-1964.76,338.4
		c0.47,0,0.93-0.23,1.2-0.39c0.04-0.04,0.04-0.09,0.04-0.11c0-0.43,0-0.77,0-1.24c-0.11-0.02-0.25-0.02-0.38-0.02
		c-1.16,0-1.68,0.52-1.68,1.06C-1965.59,338.13-1965.12,338.4-1964.76,338.4z"/>
	<path d="M-1953.94,331.87c0.65,0,1.56,0.18,1.99,0.43c0,0.56-0.56,1.81-0.91,2.01c-0.23-0.09-1.15-0.54-1.86-0.54
		c-0.39,0-0.73,0.13-1,0.56c-0.27,0.47-0.36,1-0.36,1.81c0,0.86,0.23,1.34,0.56,1.72c0.3,0.36,0.84,0.43,1.2,0.43
		c0.72,0,1.54-0.27,2.08-0.48c0.13,0.47,0.27,1,0.34,1.43c-1.16,0.63-2.58,0.88-3.31,0.88c-2.2,0-3.89-1.36-3.89-3.57
		C-1959.12,334.01-1957.11,331.87-1953.94,331.87z"/>
	<path d="M-1951.4,333.88c0-0.48,0.02-1.04,0.04-1.52c0.97-0.07,3.87-0.48,4.01-0.48c0.04,0,0.04,0.02,0.04,0.05
		c-0.02,1.93-0.05,4.69-0.05,6.48l0.99,0.04c0,0.5,0,1,0,1.49c-0.68,0-1.7,0-2.47,0c-0.75,0-1.7,0.02-2.44,0.02
		c0-0.48,0-1.02,0.02-1.49l0.95-0.04c0.05-0.02,0.07-0.05,0.07-0.09v-4.41L-1951.4,333.88z M-1947.36,329.21
		c0,0.97-0.79,1.61-1.68,1.61c-0.77,0-1.56-0.66-1.56-1.58c0-0.75,0.66-1.49,1.65-1.49
		C-1947.92,327.75-1947.36,328.45-1947.36,329.21z"/>
	<path d="M-1945.98,333.92c0-0.48,0.04-1.06,0.04-1.52c0.9-0.13,4.08-0.52,4.21-0.52c0.04,0,0.04,0.02,0.04,0.05
		c0,2.06-0.02,4.68-0.02,6.75c-0.02,1.15-0.11,1.68-0.52,2.54c-0.63,1.38-1.65,2.78-2.78,3.35c-0.59,0-1.72-0.88-1.77-1.38
		c0.64-0.32,1.34-0.74,1.65-1.27c0.38-0.68,0.56-1.49,0.54-3.4l-0.04-4.55L-1945.98,333.92z M-1941.9,329.12
		c0,0.98-0.7,1.65-1.68,1.65c-0.73,0-1.58-0.65-1.58-1.58c0-0.77,0.68-1.52,1.67-1.52C-1942.42,327.66-1941.9,328.42-1941.9,329.12z
		"/>
	<path d="M-1935.52,339.33c-1.07,0.54-1.92,0.79-2.6,0.79c-0.95,0-2.33-0.95-2.33-2.08c0-1,1.18-2.71,4.03-2.71
		c0.39,0,0.68,0,0.86,0c0.05-0.9-0.27-1.42-1.07-1.42c-0.61,0-1.56,0.5-2.26,1c-0.34-0.39-0.66-0.84-0.95-1.29
		c1.29-1.04,2.63-1.76,4.34-1.76c1.38,0,2.74,1.16,2.74,2.69c0,1.18-0.02,2.87-0.04,3.64c0,0.11,0,0.14,0.09,0.14l0.95-0.05
		c0,0.47,0.02,1,0,1.47c-0.29,0.11-1.56,0.36-2.99,0.36c-0.18-0.16-0.41-0.45-0.68-0.79H-1935.52z M-1936.77,338.4
		c0.47,0,0.93-0.23,1.2-0.39c0.04-0.04,0.04-0.09,0.04-0.11c0-0.43,0-0.77,0-1.24c-0.11-0.02-0.25-0.02-0.38-0.02
		c-1.16,0-1.68,0.52-1.68,1.06C-1937.6,338.13-1937.13,338.4-1936.77,338.4z"/>
</g>
<g>
	<defs>
		<polygon id="SVGID_1_" points="-2122.82,397.09 -2122.82,333.03 -1540.05,333.03 -1540.05,410.12 		"/>
	</defs>
	<clipPath id="SVGID_00000095301378412904906160000007295023164705280643_">
		<use xlink:href="#SVGID_1_"  style="overflow:visible;"/>
	</clipPath>
	<g style="clip-path:url(#SVGID_00000095301378412904906160000007295023164705280643_);">
		<path d="M-2080.77,354.66c4.88,0,11.79,1.36,15.04,3.25c0,4.2-4.2,13.69-6.91,15.18c-1.76-0.68-8.67-4.07-14.09-4.07
			c-2.98,0-5.56,0.95-7.59,4.2c-2.03,3.52-2.71,7.59-2.71,13.69c0,6.5,1.76,10.16,4.2,13.01c2.3,2.71,6.37,3.25,9.08,3.25
			c5.42,0,11.65-2.03,15.72-3.66c0.95,3.52,2.03,7.59,2.57,10.84c-8.81,4.74-19.51,6.64-25.07,6.64c-16.67,0-29.41-10.3-29.41-26.97
			C-2119.93,370.78-2104.75,354.66-2080.77,354.66z"/>
		<path d="M-2056.92,410.49c-6.23-5.29-10.03-12.6-10.03-23.04c0-10.71,4.74-20.33,12.87-26.29c5.96-4.47,14.09-6.5,22.22-6.5
			c7.18,0,13.28,1.63,18.56,4.88c6.91,4.47,12.2,13.01,12.2,25.07c0,11.92-6.5,22.09-14.5,27.24c-5.28,3.39-12.06,5.15-19.78,5.15
			C-2043.37,416.99-2051.5,415.1-2056.92,410.49z M-2027.79,403.17c2.57-3.52,3.25-8.94,3.25-18.02c0-8.27-1.08-12.47-2.44-15.72
			c-1.49-2.85-3.93-4.2-6.37-4.2c-2.44,0-4.61,0.95-6.37,3.39c-2.17,3.25-3.52,8.4-3.52,16.67c0,10.03,1.22,14.63,3.12,17.48
			c1.76,2.71,3.79,3.66,6.23,3.66C-2031.58,406.42-2029.41,405.74-2027.79,403.17z"/>
		<path d="M-1996.86,388.81c0.14-4.07,0.27-8.27,0.41-12.2c6.78,0,13.28,0,19.92-0.14c6.91-0.14,14.36-0.14,20.46-0.27
			c0,3.93-0.14,8.67-0.54,12.74c-5.83,0-14.23,0-20.73,0C-1982.76,388.94-1991.03,388.81-1996.86,388.81z"/>
		<path d="M-1954.61,369.7c0-3.52,0.13-7.59,0.13-10.98c6.23-0.81,26.7-3.93,27.51-3.93c0.14,0,0.27,0.14,0.27,0.27
			c0.54,2.57,0.81,5.15,1.22,7.72l0.54,0.14c12.47-7.32,14.77-8.27,20.33-8.27c7.18,0,12.6,7.05,13.82,8.81h0.68
			c13.42-7.72,15.85-8.54,21-8.54c5.83,0,10.57,3.25,14.09,7.72c2.3,2.98,4.07,7.86,4.07,12.06c0,9.62-0.27,20.6-0.41,29.27
			l7.05,0.27c0,3.66-0.14,7.72-0.27,11.38c-4.74,0-11.52,0-16.67,0c-5.69,0-11.93,0.14-16.67,0.14c0-3.66,0-7.86,0-11.38l4.74-0.41
			c0.27,0,0.54-0.27,0.54-0.54c0-7.05,0-16.53,0-23.31c0-2.44-0.14-4.61-0.95-6.5c-1.08-2.17-2.85-2.98-5.29-2.98
			c-2.71,0-6.78,1.63-9.48,3.25c0,8.67-0.14,21.68-0.27,30.08l5.42,0.27c0,3.66,0,7.72-0.14,11.38c-4.74,0-11.38,0-16.94,0
			c-5.01,0-10.57,0.14-14.5,0.14c0-3.79,0.14-7.86,0.14-11.38l4.88-0.41c0.41-0.14,0.54-0.41,0.54-0.68c0-6.78,0-16.4,0-24.39
			c0-2.3-0.14-4.47-0.95-6.1c-0.81-1.9-2.57-2.44-4.61-2.44c-2.71,0-7.18,1.76-10.03,3.93c-0.14,7.86-0.27,21.68-0.27,29.68
			l5.42,0.27c0,3.66,0,7.72,0,11.38c-5.15,0-11.79,0-17.48,0c-5.15,0-11.79,0-16.8,0c0-3.66,0-7.86,0.14-11.38l6.78-0.27
			c0.41,0,0.54-0.27,0.54-0.68v-33.34L-1954.61,369.7z"/>
		<path d="M-1843.91,369.7c0-3.52,0.13-7.59,0.13-10.98c6.23-0.81,26.7-3.93,27.51-3.93c0.14,0,0.27,0.14,0.27,0.27
			c0.54,2.57,0.81,5.15,1.22,7.72l0.54,0.14c12.47-7.32,14.77-8.27,20.33-8.27c7.18,0,12.6,7.05,13.82,8.81h0.68
			c13.42-7.72,15.85-8.54,21-8.54c5.83,0,10.57,3.25,14.09,7.72c2.3,2.98,4.06,7.86,4.06,12.06c0,9.62-0.27,20.6-0.41,29.27
			l7.05,0.27c0,3.66-0.14,7.72-0.27,11.38c-4.74,0-11.52,0-16.67,0c-5.69,0-11.92,0.14-16.67,0.14c0-3.66,0-7.86,0-11.38l4.74-0.41
			c0.27,0,0.54-0.27,0.54-0.54c0-7.05,0-16.53,0-23.31c0-2.44-0.14-4.61-0.95-6.5c-1.08-2.17-2.85-2.98-5.29-2.98
			c-2.71,0-6.78,1.63-9.49,3.25c0,8.67-0.14,21.68-0.27,30.08l5.42,0.27c0,3.66,0,7.72-0.14,11.38c-4.74,0-11.38,0-16.94,0
			c-5.01,0-10.57,0.14-14.5,0.14c0-3.79,0.14-7.86,0.14-11.38l4.88-0.41c0.41-0.14,0.54-0.41,0.54-0.68c0-6.78,0-16.4,0-24.39
			c0-2.3-0.14-4.47-0.95-6.1c-0.81-1.9-2.57-2.44-4.61-2.44c-2.71,0-7.18,1.76-10.03,3.93c-0.14,7.86-0.27,21.68-0.27,29.68
			l5.42,0.27c0,3.66,0,7.72,0,11.38c-5.15,0-11.79,0-17.48,0c-5.15,0-11.79,0-16.8,0c0-3.66,0-7.86,0.14-11.38l6.78-0.27
			c0.41,0,0.54-0.27,0.54-0.68v-33.34L-1843.91,369.7z"/>
		<path d="M-1698.51,354.66c8.4,0,14.77,2.98,18.43,7.18c4.34,5.15,6.91,12.2,6.91,20.87c-0.14,2.03-6.23,7.86-7.32,8
			c-3.52,0.41-17.48,0.41-29.54,0.41c0.27,4.47,1.9,7.05,3.66,8.81c3.12,2.98,6.64,3.25,10.16,3.25c5.83,0,14.64-2.17,19.11-3.79
			c0.95,3.52,2.03,7.86,2.57,11.25c-8,3.66-19.92,6.37-26.42,6.37c-18.02,0-31.71-8.81-31.71-27.91
			C-1732.66,369.84-1718.84,354.66-1698.51,354.66z M-1707.59,369.56c-1.63,2.71-2.57,5.28-2.44,10.71c4.74,0,11.38-0.14,15.31-0.27
			c0.81,0,1.22-0.54,1.22-1.49c0-2.85-0.54-6.37-1.49-8.4c-1.22-2.44-3.25-4.07-6.1-4.07
			C-1703.39,366.04-1705.69,366.58-1707.59,369.56z"/>
		<path d="M-1672.09,369.84c0-3.79,0.14-7.72,0.14-11.11c6.78-0.54,26.83-3.93,27.64-3.93c0.27,0,0.27,0.14,0.27,0.27
			c0.68,2.85,1.22,5.69,1.9,8.54l0.68,0.14c13.14-8.13,16.13-9.08,22.36-9.08c5.83,0,11.38,5.15,14.09,9.76
			c2.57,4.2,3.12,8.4,3.12,12.06c0,7.72-0.41,18.97-0.54,27.64l6.78,0.27c0,3.66,0,7.72-0.14,11.25c-5.15,0-11.79,0-17.48,0
			c-5.83,0-12.2,0.14-16.94,0.14c0-3.66,0-7.72,0.14-11.25l5.42-0.27c0.27-0.14,0.41-0.27,0.54-0.68c0.14-5.42,0-13.01,0-18.29
			c-0.14-6.23-0.14-9.49-1.08-11.52c-1.36-2.57-3.12-2.98-5.15-2.98c-2.98,0-7.59,2.17-10.84,4.74c-0.14,7.86-0.41,20.87-0.41,28.59
			l5.83,0.41c0,3.66,0,7.59-0.14,11.11c-4.74,0-11.52,0-16.94,0c-5.69,0-12.6,0.14-17.89,0.14c0-3.66,0-7.72,0.14-11.25l6.64-0.27
			c0.41-0.14,0.54-0.41,0.54-0.68v-33.47L-1672.09,369.84z"/>
		<path d="M-1582.79,412.93c-4.34-3.79-4.74-6.91-4.74-10.7c0-7.59,0.14-14.5,0.14-16.13c0-2.85,0.14-15.99,0.14-17.75
			c-2.3,0-6.1,0-9.49,0c0-3.79,0.14-7.86,0.41-11.52c2.85-0.27,6.1-0.54,8.81-0.81c0.54,0,0.95-0.41,0.95-1.08
			c0.41-3.52,0.68-7.99,1.08-11.25c6.78-3.39,19.78-7.18,20.19-7.18c0.27,0,0.41,0.14,0.41,0.54c-0.14,2.98-0.27,15.31-0.41,18.97
			c6.91,0,14.5,0,20.87-0.14c0,3.93-0.14,8.54-0.54,12.6c-5.69,0-14.09-0.14-20.33-0.14c0,1.22-0.14,3.93-0.14,11.38
			c0,5.56,0,10.84,0,16.94c0,3.79,3.25,6.1,6.23,6.1c5.42,0,10.57-0.95,14.77-2.03c0.68,3.66,1.22,7.86,1.49,11.38
			c-9.35,3.66-19.24,4.88-29.27,4.88C-1575.88,416.99-1579.27,416.04-1582.79,412.93z"/>
	</g>
</g>
<g>
	<path class="st1" d="M1190.41,417.04c-0.18,0.09-1.76,0.34-2.94,0.34c-0.27-0.2-0.52-0.47-0.82-0.9h-0.09
		c-1.47,0.84-1.81,0.9-2.53,0.9c-1.09,0-2.45-1.43-2.45-2.53c0-1.36,0.02-2.78,0.04-3.94l-0.81-0.04c0-0.48,0.02-1,0.04-1.47
		c0.73-0.04,3.39-0.11,3.62-0.12c0.04,0,0.05,0.04,0.05,0.07c0,1.25-0.05,2.83-0.05,4.14c0,0.52-0.02,1.15,0.21,1.54
		c0.21,0.34,0.47,0.36,0.7,0.36c0.3,0,0.73-0.13,1.07-0.38c0.02-1.22,0-3.01,0-4.09l-0.88-0.04c0.02-0.5,0.02-1.06,0.04-1.52
		c0.66-0.02,3.49-0.07,3.76-0.07c0.02,0,0.04,0.05,0.04,0.07c-0.02,1.9-0.05,4.05-0.05,6.11c0,0.07,0.02,0.11,0.07,0.11l1-0.04
		C1190.43,416.02,1190.41,416.58,1190.41,417.04z"/>
	<path class="st1" d="M1190.94,411.13c0-0.47,0.02-1,0.02-1.45c0.82-0.11,3.53-0.52,3.64-0.52c0.02,0,0.04,0.02,0.04,0.04
		c0.07,0.34,0.11,0.68,0.16,1.02l0.07,0.02c1.65-0.97,1.95-1.09,2.69-1.09c0.95,0,1.67,0.93,1.83,1.16h0.09
		c1.77-1.02,2.1-1.13,2.78-1.13c0.77,0,1.4,0.43,1.86,1.02c0.3,0.39,0.54,1.04,0.54,1.59c0,1.27-0.04,2.72-0.05,3.87l0.93,0.04
		c0,0.48-0.02,1.02-0.04,1.51c-0.63,0-1.52,0-2.2,0c-0.75,0-1.58,0.02-2.2,0.02c0-0.48,0-1.04,0-1.51l0.63-0.05
		c0.04,0,0.07-0.04,0.07-0.07c0-0.93,0-2.19,0-3.08c0-0.32-0.02-0.61-0.13-0.86c-0.14-0.29-0.38-0.39-0.7-0.39
		c-0.36,0-0.9,0.21-1.25,0.43c0,1.15-0.02,2.87-0.04,3.98l0.72,0.04c0,0.48,0,1.02-0.02,1.51c-0.63,0-1.51,0-2.24,0
		c-0.66,0-1.4,0.02-1.92,0.02c0-0.5,0.02-1.04,0.02-1.51l0.65-0.05c0.05-0.02,0.07-0.05,0.07-0.09c0-0.9,0-2.17,0-3.22
		c0-0.3-0.02-0.59-0.13-0.81c-0.11-0.25-0.34-0.32-0.61-0.32c-0.36,0-0.95,0.23-1.33,0.52c-0.02,1.04-0.04,2.87-0.04,3.92l0.72,0.04
		c0,0.48,0,1.02,0,1.51c-0.68,0-1.56,0-2.31,0c-0.68,0-1.56,0-2.22,0c0-0.48,0-1.04,0.02-1.51l0.9-0.04c0.05,0,0.07-0.04,0.07-0.09
		v-4.41L1190.94,411.13z"/>
	<path class="st1" d="M1205.92,411.18c0-0.48,0.04-1.06,0.04-1.52c0.9-0.13,4.08-0.52,4.21-0.52c0.04,0,0.04,0.02,0.04,0.05
		c0,2.06-0.02,4.68-0.02,6.75c-0.02,1.15-0.11,1.68-0.52,2.54c-0.63,1.38-1.65,2.78-2.78,3.35c-0.59,0-1.72-0.88-1.77-1.38
		c0.65-0.32,1.34-0.74,1.65-1.27c0.38-0.68,0.56-1.49,0.54-3.4l-0.04-4.55L1205.92,411.18z M1210,406.38c0,0.98-0.7,1.65-1.68,1.65
		c-0.73,0-1.58-0.65-1.58-1.58c0-0.77,0.68-1.52,1.67-1.52C1209.48,404.93,1210,405.68,1210,406.38z"/>
	<path class="st1" d="M1216.17,409.14c1.11,0,1.95,0.39,2.44,0.95c0.57,0.68,0.91,1.61,0.91,2.76c-0.02,0.27-0.82,1.04-0.97,1.06
		c-0.47,0.05-2.31,0.05-3.91,0.05c0.04,0.59,0.25,0.93,0.48,1.16c0.41,0.39,0.88,0.43,1.34,0.43c0.77,0,1.93-0.29,2.53-0.5
		c0.13,0.47,0.27,1.04,0.34,1.49c-1.06,0.48-2.63,0.84-3.49,0.84c-2.38,0-4.19-1.16-4.19-3.69
		C1211.65,411.15,1213.48,409.14,1216.17,409.14z M1214.96,411.11c-0.21,0.36-0.34,0.7-0.32,1.42c0.63,0,1.51-0.02,2.02-0.04
		c0.11,0,0.16-0.07,0.16-0.2c0-0.38-0.07-0.84-0.2-1.11c-0.16-0.32-0.43-0.54-0.81-0.54
		C1215.52,410.65,1215.22,410.72,1214.96,411.11z"/>
	<path class="st1" d="M1221.95,416.85c-0.57-0.5-0.63-0.91-0.63-1.42c0-1,0.02-1.92,0.02-2.13c0-0.38,0.02-2.11,0.02-2.35
		c-0.3,0-0.81,0-1.25,0c0-0.5,0.02-1.04,0.05-1.52c0.38-0.04,0.81-0.07,1.16-0.11c0.07,0,0.13-0.05,0.13-0.14
		c0.05-0.47,0.09-1.06,0.14-1.49c0.9-0.45,2.62-0.95,2.67-0.95c0.04,0,0.05,0.02,0.05,0.07c-0.02,0.39-0.04,2.02-0.05,2.51
		c0.91,0,1.92,0,2.76-0.02c0,0.52-0.02,1.13-0.07,1.67c-0.75,0-1.86-0.02-2.69-0.02c0,0.16-0.02,0.52-0.02,1.51
		c0,0.73,0,1.43,0,2.24c0,0.5,0.43,0.81,0.82,0.81c0.72,0,1.4-0.12,1.95-0.27c0.09,0.48,0.16,1.04,0.2,1.51
		c-1.24,0.48-2.54,0.65-3.87,0.65C1222.87,417.38,1222.42,417.26,1221.95,416.85z"/>
	<path class="st1" d="M1227.69,411.15c0-0.5,0.02-1.02,0.02-1.47c0.9-0.07,3.55-0.52,3.66-0.52c0.04,0,0.04,0.02,0.04,0.04
		c0.09,0.38,0.16,0.75,0.25,1.13l0.09,0.02c1.74-1.08,2.13-1.2,2.96-1.2c0.77,0,1.51,0.68,1.86,1.29c0.34,0.56,0.41,1.11,0.41,1.59
		c0,1.02-0.05,2.51-0.07,3.65l0.9,0.04c0,0.48,0,1.02-0.02,1.49c-0.68,0-1.56,0-2.31,0c-0.77,0-1.61,0.02-2.24,0.02
		c0-0.48,0-1.02,0.02-1.49l0.72-0.04c0.04-0.02,0.05-0.04,0.07-0.09c0.02-0.72,0-1.72,0-2.42c-0.02-0.82-0.02-1.25-0.14-1.52
		c-0.18-0.34-0.41-0.39-0.68-0.39c-0.39,0-1,0.29-1.43,0.63c-0.02,1.04-0.05,2.76-0.05,3.78l0.77,0.05c0,0.48,0,1-0.02,1.47
		c-0.63,0-1.52,0-2.24,0c-0.75,0-1.67,0.02-2.36,0.02c0-0.48,0-1.02,0.02-1.49l0.88-0.04c0.05-0.02,0.07-0.05,0.07-0.09v-4.43
		L1227.69,411.15z"/>
	<path class="st1" d="M1238.41,411.15c0-0.48,0.02-1.04,0.04-1.52c0.97-0.07,3.87-0.48,4.01-0.48c0.04,0,0.04,0.02,0.04,0.05
		c-0.02,1.93-0.05,4.69-0.05,6.48l0.99,0.04c0,0.5,0,1,0,1.49c-0.68,0-1.7,0-2.47,0c-0.75,0-1.7,0.02-2.44,0.02
		c0-0.48,0-1.02,0.02-1.49l0.95-0.04c0.05-0.02,0.07-0.05,0.07-0.09v-4.41L1238.41,411.15z M1242.44,406.47
		c0,0.97-0.79,1.61-1.68,1.61c-0.77,0-1.56-0.66-1.56-1.58c0-0.75,0.66-1.49,1.65-1.49
		C1241.88,405.02,1242.44,405.72,1242.44,406.47z"/>
	<path class="st1" d="M1249.28,409.14c0.65,0,1.56,0.18,1.99,0.43c0,0.56-0.56,1.81-0.91,2.01c-0.23-0.09-1.15-0.54-1.86-0.54
		c-0.39,0-0.73,0.13-1,0.56c-0.27,0.47-0.36,1-0.36,1.81c0,0.86,0.23,1.34,0.56,1.72c0.3,0.36,0.84,0.43,1.2,0.43
		c0.72,0,1.54-0.27,2.08-0.48c0.13,0.47,0.27,1,0.34,1.43c-1.16,0.63-2.58,0.88-3.31,0.88c-2.2,0-3.89-1.36-3.89-3.57
		C1244.1,411.27,1246.11,409.14,1249.28,409.14z M1250.41,404.88c0.29,0.21,0.61,0.52,0.84,0.79c-0.63,0.7-1.54,1.79-2.19,2.53
		c-0.34,0-0.79,0-1.15-0.02c-0.66-0.79-1.45-1.7-2.17-2.51c0.29-0.29,0.61-0.56,0.91-0.77c0.56,0.54,1.2,1.13,1.85,1.72
		C1249.17,406.02,1249.84,405.4,1250.41,404.88z"/>
	<path class="st1" d="M1251.81,415.74l0.88-0.05c0.04,0,0.05-0.05,0.05-0.07c0-2.74,0.02-6.23,0.02-8.92l-1.15-0.04
		c0-0.48,0.02-1.02,0.02-1.49c1-0.13,3.87-0.5,4.05-0.5c0.04,0,0.05,0.02,0.05,0.07c0,2.08-0.04,4.73-0.05,7.52
		c0.3,0,0.63-0.02,0.95-0.05c0.3-0.27,0.77-0.72,1.24-1.27c0.04-0.04,0-0.05-0.04-0.05l-0.66-0.04c0-0.5,0-1.04,0.02-1.52
		c0.81,0,1.74,0,2.51,0c0.5-0.02,1.06-0.02,1.56-0.02c0,0.48-0.02,1.02-0.04,1.51l-0.65,0.05c-0.9,0.73-1.49,1.24-1.97,1.61v0.13
		c0.36,0.23,0.84,0.61,1.27,1.67c0.23,0.56,0.45,1.02,0.57,1.25c0.07,0.11,0.18,0.16,0.27,0.16l0.9,0.04c0,0.48,0,1.02-0.02,1.49
		c-0.66,0-3.33,0.04-3.57,0.04c-0.23-0.47-0.47-1.2-0.77-2.11c-0.27-0.81-0.61-1.45-0.9-1.45c-0.21,0-0.45,0-0.68,0
		c-0.02,0.57-0.02,1.43-0.04,2.01l0.66,0.05c0,0.48,0,1-0.02,1.47c-0.59,0-1.47,0-2.2,0c-0.73,0-1.58,0.02-2.31,0.02
		C1251.77,416.74,1251.79,416.2,1251.81,415.74z"/>
	<path class="st1" d="M1266.95,416.59c-1.07,0.54-1.92,0.79-2.6,0.79c-0.95,0-2.33-0.95-2.33-2.08c0-1,1.18-2.71,4.03-2.71
		c0.39,0,0.68,0,0.86,0c0.05-0.9-0.27-1.42-1.07-1.42c-0.61,0-1.56,0.5-2.26,1c-0.34-0.39-0.66-0.84-0.95-1.29
		c1.29-1.04,2.63-1.76,4.34-1.76c1.38,0,2.74,1.16,2.74,2.69c0,1.18-0.02,2.87-0.04,3.64c0,0.11,0,0.14,0.09,0.14l0.95-0.05
		c0,0.47,0.02,1,0,1.47c-0.29,0.11-1.56,0.36-2.99,0.36c-0.18-0.16-0.41-0.45-0.68-0.79H1266.95z M1265.7,415.66
		c0.47,0,0.93-0.23,1.2-0.39c0.04-0.04,0.04-0.09,0.04-0.11c0-0.43,0-0.77,0-1.24c-0.11-0.02-0.25-0.02-0.38-0.02
		c-1.16,0-1.68,0.52-1.68,1.06C1264.87,415.39,1265.34,415.66,1265.7,415.66z"/>
</g>
<g>
	<path class="st1" d="M1275.61,416.4c-0.82-0.7-1.33-1.67-1.33-3.05c0-1.42,0.63-2.69,1.7-3.47c0.79-0.59,1.86-0.86,2.94-0.86
		c0.95,0,1.76,0.21,2.45,0.64c0.91,0.59,1.61,1.72,1.61,3.31c0,1.58-0.86,2.92-1.92,3.6c-0.7,0.45-1.59,0.68-2.62,0.68
		C1277.41,417.26,1276.33,417.01,1275.61,416.4z M1279.47,415.43c0.34-0.47,0.43-1.18,0.43-2.38c0-1.09-0.14-1.65-0.32-2.08
		c-0.2-0.38-0.52-0.56-0.84-0.56s-0.61,0.13-0.84,0.45c-0.29,0.43-0.47,1.11-0.47,2.2c0,1.33,0.16,1.93,0.41,2.31
		c0.23,0.36,0.5,0.48,0.82,0.48C1278.96,415.86,1279.25,415.77,1279.47,415.43z"/>
	<path class="st1" d="M1283.97,415.63l0.84-0.04c0.05-0.02,0.07-0.04,0.07-0.07c0-1.45,0-3.12,0-4.52l-1.06-0.05
		c0-0.48,0.02-1,0.04-1.47c0.81-0.09,3.48-0.47,3.57-0.47c0.02,0,0.04,0,0.04,0.04c0.05,0.77,0.13,1.52,0.18,2.29l0.11,0.02
		c1.11-2.11,1.52-2.35,2.42-2.35c0.45,0,0.93,0.11,1.29,0.23c0,0.84-0.5,2.29-0.84,2.6c-0.16-0.04-0.7-0.18-1.13-0.18
		c-0.18,0-0.34,0.02-0.52,0.16c-0.32,0.27-0.59,0.59-0.93,1.24c-0.21,0.43-0.25,1-0.27,1.51c0,0.3,0,0.72,0,0.98l1.47,0.05
		c0,0.48,0,0.98-0.04,1.47c-0.75,0-1.86,0-2.71,0c-0.79,0-1.79,0.02-2.54,0.02C1283.95,416.61,1283.95,416.08,1283.97,415.63z"/>
	<path class="st1" d="M1293.79,414.87c-0.82-0.36-1.93-1.2-1.93-2.58c0-1.93,1.92-3.28,4.17-3.28c0.79,0,1.54,0.11,1.74,0.14
		c0.18,0.04,0.3,0.07,0.39,0.05c0.84-0.04,2.22-0.11,2.69-0.14c0.05,0.5,0.05,1.11,0.02,1.61c-0.36,0.02-1,0.02-1.43,0.02
		l-0.04,0.07c0.21,0.29,0.38,0.77,0.38,1.29c0,0.61-0.23,1.38-0.81,1.99c-0.59,0.59-1.74,1.16-3.6,1.11
		c-0.23,0.2-0.38,0.43-0.38,0.59c0,0.38,0.34,0.43,1.79,0.48c1.95,0.05,2.49,0.14,3.15,0.61c0.61,0.43,0.84,0.77,0.84,1.67
		c0,1.18-0.9,2.2-2.38,2.72c-0.86,0.32-1.93,0.48-3.06,0.48c-2.53,0-4.03-0.77-4.03-2.13c0-0.23,0.11-0.38,0.38-0.56
		c0.79-0.54,1.29-0.82,1.7-1.09v-0.11c-0.68-0.29-1.36-0.63-1.36-1.63c0-0.2,0.07-0.25,1.77-1.2V414.87z M1296.62,418.4
		c-0.84-0.05-1.49-0.13-1.86-0.14c-0.3,0.38-0.48,0.7-0.48,1.15c0,0.63,0.77,0.95,1.63,0.95c0.59,0,1.15-0.11,1.51-0.34
		c0.34-0.2,0.52-0.54,0.52-0.91C1297.92,418.62,1297.73,418.48,1296.62,418.4z M1295.86,413.87c0.65,0,1.02-0.61,1.02-1.93
		c0-0.63-0.07-0.95-0.27-1.29c-0.14-0.27-0.45-0.36-0.75-0.36c-0.65,0-1.09,0.65-1.09,1.74
		C1294.77,413.5,1295.24,413.87,1295.86,413.87z"/>
	<path class="st1" d="M1305.99,416.47c-1.08,0.54-1.92,0.79-2.6,0.79c-0.95,0-2.33-0.95-2.33-2.08c0-1,1.18-2.71,4.03-2.71
		c0.39,0,0.68,0,0.86,0c0.05-0.9-0.27-1.42-1.07-1.42c-0.61,0-1.56,0.5-2.26,1c-0.34-0.39-0.66-0.84-0.95-1.29
		c1.29-1.04,2.63-1.76,4.34-1.76c1.38,0,2.74,1.16,2.74,2.69c0,1.18-0.02,2.87-0.04,3.64c0,0.11,0,0.14,0.09,0.14l0.95-0.05
		c0,0.47,0.02,1,0,1.47c-0.29,0.11-1.56,0.36-2.99,0.36c-0.18-0.16-0.41-0.45-0.68-0.79H1305.99z M1304.73,415.54
		c0.47,0,0.93-0.23,1.2-0.39c0.04-0.04,0.04-0.09,0.04-0.11c0-0.43,0-0.77,0-1.24c-0.11-0.02-0.25-0.02-0.38-0.02
		c-1.16,0-1.68,0.52-1.68,1.06C1303.91,415.27,1304.38,415.54,1304.73,415.54z"/>
	<path class="st1" d="M1310.24,411.02c0-0.5,0.02-1.02,0.02-1.47c0.9-0.07,3.55-0.52,3.66-0.52c0.04,0,0.04,0.02,0.04,0.04
		c0.09,0.38,0.16,0.75,0.25,1.13l0.09,0.02c1.74-1.08,2.13-1.2,2.96-1.2c0.77,0,1.51,0.68,1.86,1.29c0.34,0.56,0.41,1.11,0.41,1.59
		c0,1.02-0.05,2.51-0.07,3.65l0.9,0.04c0,0.48,0,1.02-0.02,1.49c-0.68,0-1.56,0-2.31,0c-0.77,0-1.61,0.02-2.24,0.02
		c0-0.48,0-1.02,0.02-1.49l0.72-0.04c0.04-0.02,0.05-0.04,0.07-0.09c0.02-0.72,0-1.72,0-2.42c-0.02-0.82-0.02-1.25-0.14-1.52
		c-0.18-0.34-0.41-0.39-0.68-0.39c-0.39,0-1,0.29-1.43,0.63c-0.02,1.04-0.05,2.76-0.05,3.78l0.77,0.05c0,0.48,0,1-0.02,1.47
		c-0.63,0-1.52,0-2.24,0c-0.75,0-1.67,0.02-2.36,0.02c0-0.48,0-1.02,0.02-1.49l0.88-0.04c0.05-0.02,0.07-0.05,0.07-0.09v-4.43
		L1310.24,411.02z"/>
	<path class="st1" d="M1320.95,411.02c0-0.48,0.02-1.04,0.04-1.52c0.97-0.07,3.87-0.48,4.01-0.48c0.04,0,0.04,0.02,0.04,0.05
		c-0.02,1.93-0.05,4.69-0.05,6.48l0.99,0.04c0,0.5,0,1,0,1.49c-0.68,0-1.7,0-2.47,0c-0.75,0-1.7,0.02-2.44,0.02
		c0-0.48,0-1.02,0.02-1.49l0.95-0.04c0.05-0.02,0.07-0.05,0.07-0.09v-4.41L1320.95,411.02z M1324.98,406.35
		c0,0.97-0.79,1.61-1.68,1.61c-0.77,0-1.56-0.66-1.56-1.58c0-0.75,0.66-1.49,1.65-1.49C1324.43,404.9,1324.98,405.59,1324.98,406.35
		z"/>
	<path class="st1" d="M1334.66,414.18c-0.21,0.95-0.47,1.95-0.72,2.92c-0.29,0-2.02-0.02-3.22-0.02h-2.28c-0.27,0-1.27,0-1.58,0
		c-0.14-0.38-0.32-0.93-0.45-1.34c1.59-1.72,2.88-3.01,4.8-4.98l-0.02-0.07c-0.38,0-1.52-0.02-1.85-0.02s-0.39,0.12-0.47,0.29
		l-0.52,1.42c-0.57-0.09-1.16-0.2-1.65-0.3c0.18-0.97,0.38-1.95,0.59-2.9c0.2,0,0.86,0.02,1.97,0.04c1.4,0,3.05,0,4.68,0
		c0.2,0.61,0.38,1.31,0.48,1.92c-0.73,0.88-3.8,3.71-4.53,4.39l0.04,0.07c0.34,0,1.02,0,1.92-0.02c0.32-0.02,0.54-0.14,0.63-0.34
		l0.57-1.42C1333.62,413.91,1334.18,414.05,1334.66,414.18z"/>
	<path class="st1" d="M1340.34,416.47c-1.08,0.54-1.92,0.79-2.6,0.79c-0.95,0-2.33-0.95-2.33-2.08c0-1,1.18-2.71,4.03-2.71
		c0.39,0,0.68,0,0.86,0c0.05-0.9-0.27-1.42-1.07-1.42c-0.61,0-1.56,0.5-2.26,1c-0.34-0.39-0.66-0.84-0.95-1.29
		c1.29-1.04,2.63-1.76,4.34-1.76c1.38,0,2.74,1.16,2.74,2.69c0,1.18-0.02,2.87-0.04,3.64c0,0.11,0,0.14,0.09,0.14l0.95-0.05
		c0,0.47,0.02,1,0,1.47c-0.29,0.11-1.56,0.36-2.99,0.36c-0.18-0.16-0.41-0.45-0.68-0.79H1340.34z M1339.09,415.54
		c0.47,0,0.93-0.23,1.2-0.39c0.04-0.04,0.04-0.09,0.04-0.11c0-0.43,0-0.77,0-1.24c-0.11-0.02-0.25-0.02-0.38-0.02
		c-1.16,0-1.68,0.52-1.68,1.06C1338.26,415.27,1338.73,415.54,1339.09,415.54z"/>
	<path class="st1" d="M1349.91,409.02c0.65,0,1.56,0.18,1.99,0.43c0,0.56-0.56,1.81-0.91,2.01c-0.23-0.09-1.15-0.54-1.86-0.54
		c-0.39,0-0.73,0.13-1,0.56c-0.27,0.47-0.36,1-0.36,1.81c0,0.86,0.23,1.34,0.56,1.72c0.3,0.36,0.84,0.43,1.2,0.43
		c0.72,0,1.54-0.27,2.08-0.48c0.13,0.47,0.27,1,0.34,1.43c-1.16,0.63-2.58,0.88-3.31,0.88c-2.2,0-3.89-1.36-3.89-3.57
		C1344.73,411.15,1346.74,409.02,1349.91,409.02z"/>
	<path class="st1" d="M1352.45,411.02c0-0.48,0.02-1.04,0.04-1.52c0.97-0.07,3.87-0.48,4.01-0.48c0.04,0,0.04,0.02,0.04,0.05
		c-0.02,1.93-0.05,4.69-0.05,6.48l0.99,0.04c0,0.5,0,1,0,1.49c-0.68,0-1.7,0-2.47,0c-0.75,0-1.7,0.02-2.44,0.02
		c0-0.48,0-1.02,0.02-1.49l0.95-0.04c0.05-0.02,0.07-0.05,0.07-0.09v-4.41L1352.45,411.02z M1356.49,406.35
		c0,0.97-0.79,1.61-1.68,1.61c-0.77,0-1.56-0.66-1.56-1.58c0-0.75,0.66-1.49,1.65-1.49C1355.93,404.9,1356.49,405.59,1356.49,406.35
		z"/>
	<path class="st1" d="M1357.87,411.06c0-0.48,0.04-1.06,0.04-1.52c0.9-0.13,4.08-0.52,4.21-0.52c0.04,0,0.04,0.02,0.04,0.05
		c0,2.06-0.02,4.68-0.02,6.75c-0.02,1.15-0.11,1.68-0.52,2.54c-0.63,1.38-1.65,2.78-2.78,3.35c-0.59,0-1.72-0.88-1.77-1.38
		c0.64-0.32,1.34-0.74,1.65-1.27c0.38-0.68,0.56-1.49,0.54-3.4l-0.04-4.55L1357.87,411.06z M1361.95,406.26
		c0,0.98-0.7,1.65-1.68,1.65c-0.73,0-1.58-0.65-1.58-1.58c0-0.77,0.68-1.52,1.67-1.52C1361.43,404.81,1361.95,405.56,1361.95,406.26
		z"/>
	<path class="st1" d="M1368.33,416.47c-1.07,0.54-1.92,0.79-2.6,0.79c-0.95,0-2.33-0.95-2.33-2.08c0-1,1.18-2.71,4.03-2.71
		c0.39,0,0.68,0,0.86,0c0.05-0.9-0.27-1.42-1.07-1.42c-0.61,0-1.56,0.5-2.26,1c-0.34-0.39-0.66-0.84-0.95-1.29
		c1.29-1.04,2.63-1.76,4.34-1.76c1.38,0,2.74,1.16,2.74,2.69c0,1.18-0.02,2.87-0.04,3.64c0,0.11,0,0.14,0.09,0.14l0.95-0.05
		c0,0.47,0.02,1,0,1.47c-0.29,0.11-1.56,0.36-2.99,0.36c-0.18-0.16-0.41-0.45-0.68-0.79H1368.33z M1367.08,415.54
		c0.47,0,0.93-0.23,1.2-0.39c0.04-0.04,0.04-0.09,0.04-0.11c0-0.43,0-0.77,0-1.24c-0.11-0.02-0.25-0.02-0.38-0.02
		c-1.16,0-1.68,0.52-1.68,1.06C1366.25,415.27,1366.72,415.54,1367.08,415.54z"/>
</g>
<g>
	<defs>
		<polygon id="SVGID_00000154393625278523533590000004474094817314795665_" points="791.61,384.79 791.61,320.73 1374.38,320.73 
			1374.38,397.82 		"/>
	</defs>
	<clipPath id="SVGID_00000116955939459027243590000009966685220532397995_">
		<use xlink:href="#SVGID_00000154393625278523533590000004474094817314795665_"  style="overflow:visible;"/>
	</clipPath>
	<g style="clip-path:url(#SVGID_00000116955939459027243590000009966685220532397995_);">
		<path class="st1" d="M833.66,342.36c4.88,0,11.79,1.36,15.04,3.25c0,4.2-4.2,13.69-6.91,15.18c-1.76-0.68-8.67-4.07-14.09-4.07
			c-2.98,0-5.56,0.95-7.59,4.2c-2.03,3.52-2.71,7.59-2.71,13.69c0,6.5,1.76,10.16,4.2,13.01c2.3,2.71,6.37,3.25,9.08,3.25
			c5.42,0,11.65-2.03,15.72-3.66c0.95,3.52,2.03,7.59,2.57,10.84c-8.81,4.74-19.51,6.64-25.07,6.64c-16.67,0-29.41-10.3-29.41-26.97
			C794.5,358.48,809.67,342.36,833.66,342.36z"/>
		<path class="st1" d="M857.51,398.19c-6.23-5.29-10.03-12.6-10.03-23.04c0-10.71,4.74-20.33,12.87-26.29
			c5.96-4.47,14.09-6.5,22.22-6.5c7.18,0,13.28,1.63,18.56,4.88c6.91,4.47,12.2,13.01,12.2,25.07c0,11.92-6.5,22.09-14.5,27.24
			c-5.28,3.39-12.06,5.15-19.78,5.15C871.06,404.69,862.93,402.79,857.51,398.19z M886.64,390.87c2.57-3.52,3.25-8.94,3.25-18.02
			c0-8.27-1.08-12.47-2.44-15.72c-1.49-2.85-3.93-4.2-6.37-4.2c-2.44,0-4.61,0.95-6.37,3.39c-2.17,3.25-3.52,8.4-3.52,16.67
			c0,10.03,1.22,14.64,3.12,17.48c1.76,2.71,3.79,3.66,6.23,3.66C882.85,394.12,885.01,393.44,886.64,390.87z"/>
		<path class="st1" d="M917.57,376.51c0.14-4.07,0.27-8.27,0.41-12.2c6.78,0,13.28,0,19.92-0.14c6.91-0.14,14.36-0.14,20.46-0.27
			c0,3.93-0.14,8.67-0.54,12.74c-5.83,0-14.23,0-20.73,0C931.66,376.64,923.4,376.51,917.57,376.51z"/>
		<path class="st1" d="M959.81,357.4c0-3.52,0.13-7.59,0.13-10.98c6.23-0.81,26.7-3.93,27.51-3.93c0.14,0,0.27,0.14,0.27,0.27
			c0.54,2.57,0.81,5.15,1.22,7.72l0.54,0.14c12.47-7.32,14.77-8.27,20.33-8.27c7.18,0,12.6,7.05,13.82,8.81h0.68
			c13.42-7.72,15.85-8.54,21-8.54c5.83,0,10.57,3.25,14.09,7.72c2.3,2.98,4.07,7.86,4.07,12.06c0,9.62-0.27,20.6-0.41,29.27
			l7.05,0.27c0,3.66-0.14,7.72-0.27,11.38c-4.74,0-11.52,0-16.67,0c-5.69,0-11.92,0.14-16.67,0.14c0-3.66,0-7.86,0-11.38l4.74-0.41
			c0.27,0,0.54-0.27,0.54-0.54c0-7.05,0-16.53,0-23.31c0-2.44-0.14-4.61-0.95-6.5c-1.08-2.17-2.85-2.98-5.29-2.98
			c-2.71,0-6.78,1.63-9.49,3.25c0,8.67-0.14,21.68-0.27,30.08l5.42,0.27c0,3.66,0,7.72-0.14,11.38c-4.74,0-11.38,0-16.94,0
			c-5.01,0-10.57,0.14-14.5,0.14c0-3.79,0.14-7.86,0.14-11.38l4.88-0.41c0.41-0.14,0.54-0.41,0.54-0.68c0-6.78,0-16.4,0-24.39
			c0-2.3-0.14-4.47-0.95-6.1c-0.81-1.9-2.57-2.44-4.61-2.44c-2.71,0-7.18,1.76-10.03,3.93c-0.14,7.86-0.27,21.68-0.27,29.68
			l5.42,0.27c0,3.66,0,7.72,0,11.38c-5.15,0-11.79,0-17.48,0c-5.15,0-11.79,0-16.8,0c0-3.66,0-7.86,0.14-11.38l6.78-0.27
			c0.41,0,0.54-0.27,0.54-0.68v-33.34L959.81,357.4z"/>
		<path class="st1" d="M1070.52,357.4c0-3.52,0.13-7.59,0.13-10.98c6.23-0.81,26.7-3.93,27.51-3.93c0.14,0,0.27,0.14,0.27,0.27
			c0.54,2.57,0.81,5.15,1.22,7.72l0.54,0.14c12.47-7.32,14.77-8.27,20.33-8.27c7.18,0,12.6,7.05,13.82,8.81h0.68
			c13.42-7.72,15.85-8.54,21-8.54c5.83,0,10.57,3.25,14.09,7.72c2.3,2.98,4.07,7.86,4.07,12.06c0,9.62-0.27,20.6-0.41,29.27
			l7.05,0.27c0,3.66-0.14,7.72-0.27,11.38c-4.74,0-11.52,0-16.67,0c-5.69,0-11.93,0.14-16.67,0.14c0-3.66,0-7.86,0-11.38l4.74-0.41
			c0.27,0,0.54-0.27,0.54-0.54c0-7.05,0-16.53,0-23.31c0-2.44-0.14-4.61-0.95-6.5c-1.08-2.17-2.85-2.98-5.29-2.98
			c-2.71,0-6.78,1.63-9.48,3.25c0,8.67-0.14,21.68-0.27,30.08l5.42,0.27c0,3.66,0,7.72-0.14,11.38c-4.74,0-11.38,0-16.94,0
			c-5.01,0-10.57,0.14-14.5,0.14c0-3.79,0.14-7.86,0.14-11.38l4.88-0.41c0.41-0.14,0.54-0.41,0.54-0.68c0-6.78,0-16.4,0-24.39
			c0-2.3-0.14-4.47-0.95-6.1c-0.81-1.9-2.57-2.44-4.61-2.44c-2.71,0-7.18,1.76-10.03,3.93c-0.14,7.86-0.27,21.68-0.27,29.68
			l5.42,0.27c0,3.66,0,7.72,0,11.38c-5.15,0-11.79,0-17.48,0c-5.15,0-11.79,0-16.8,0c0-3.66,0-7.86,0.14-11.38l6.78-0.27
			c0.41,0,0.54-0.27,0.54-0.68v-33.34L1070.52,357.4z"/>
		<path class="st1" d="M1215.92,342.36c8.4,0,14.77,2.98,18.43,7.18c4.34,5.15,6.91,12.2,6.91,20.87c-0.14,2.03-6.23,7.86-7.32,8
			c-3.52,0.41-17.48,0.41-29.54,0.41c0.27,4.47,1.9,7.05,3.66,8.81c3.12,2.98,6.64,3.25,10.16,3.25c5.83,0,14.64-2.17,19.11-3.79
			c0.95,3.52,2.03,7.86,2.57,11.25c-8,3.66-19.92,6.37-26.42,6.37c-18.02,0-31.71-8.81-31.71-27.91
			C1181.77,357.53,1195.59,342.36,1215.92,342.36z M1206.84,357.26c-1.63,2.71-2.57,5.28-2.44,10.71c4.74,0,11.38-0.14,15.31-0.27
			c0.81,0,1.22-0.54,1.22-1.49c0-2.85-0.54-6.37-1.49-8.4c-1.22-2.44-3.25-4.07-6.1-4.07
			C1211.04,353.74,1208.73,354.28,1206.84,357.26z"/>
		<path class="st1" d="M1242.34,357.53c0-3.79,0.14-7.72,0.14-11.11c6.78-0.54,26.83-3.93,27.64-3.93c0.27,0,0.27,0.14,0.27,0.27
			c0.68,2.85,1.22,5.69,1.9,8.54l0.68,0.14c13.14-8.13,16.13-9.08,22.36-9.08c5.83,0,11.38,5.15,14.09,9.76
			c2.57,4.2,3.12,8.4,3.12,12.06c0,7.72-0.41,18.97-0.54,27.64l6.78,0.27c0,3.66,0,7.72-0.14,11.25c-5.15,0-11.79,0-17.48,0
			c-5.83,0-12.2,0.14-16.94,0.14c0-3.66,0-7.72,0.14-11.25l5.42-0.27c0.27-0.14,0.41-0.27,0.54-0.68c0.14-5.42,0-13.01,0-18.29
			c-0.14-6.23-0.14-9.49-1.08-11.52c-1.35-2.57-3.12-2.98-5.15-2.98c-2.98,0-7.59,2.17-10.84,4.74c-0.14,7.86-0.41,20.87-0.41,28.59
			l5.83,0.41c0,3.66,0,7.59-0.14,11.11c-4.74,0-11.52,0-16.94,0c-5.69,0-12.6,0.14-17.89,0.14c0-3.66,0-7.72,0.14-11.25l6.64-0.27
			c0.41-0.14,0.54-0.41,0.54-0.68v-33.47L1242.34,357.53z"/>
		<path class="st1" d="M1331.63,400.63c-4.34-3.79-4.74-6.91-4.74-10.7c0-7.59,0.14-14.5,0.14-16.13c0-2.85,0.14-15.99,0.14-17.75
			c-2.3,0-6.1,0-9.48,0c0-3.79,0.14-7.86,0.41-11.52c2.85-0.27,6.1-0.54,8.81-0.81c0.54,0,0.95-0.41,0.95-1.08
			c0.41-3.52,0.68-7.99,1.08-11.25c6.78-3.39,19.78-7.18,20.19-7.18c0.27,0,0.41,0.14,0.41,0.54c-0.14,2.98-0.27,15.31-0.41,18.97
			c6.91,0,14.5,0,20.87-0.14c0,3.93-0.14,8.54-0.54,12.6c-5.69,0-14.09-0.14-20.33-0.14c0,1.22-0.14,3.93-0.14,11.38
			c0,5.56,0,10.84,0,16.94c0,3.79,3.25,6.1,6.23,6.1c5.42,0,10.57-0.95,14.77-2.03c0.68,3.66,1.22,7.86,1.49,11.38
			c-9.35,3.66-19.24,4.88-29.27,4.88C1338.55,404.69,1335.16,403.74,1331.63,400.63z"/>
	</g>
</g>
<g>
	<defs>
		<polygon id="SVGID_00000027589097962488317490000015674537753613679037_" points="-2865.21,435.72 -2865.21,385.68 
			-2410.03,385.68 -2410.03,445.89 		"/>
	</defs>
	<clipPath id="SVGID_00000127764249247291993000000009502929411299634103_">
		<use xlink:href="#SVGID_00000027589097962488317490000015674537753613679037_"  style="overflow:visible;"/>
	</clipPath>
	<g style="clip-path:url(#SVGID_00000127764249247291993000000009502929411299634103_);">
		<path d="M-2733.83,414.32c0-2.75,0.11-5.93,0.11-8.57c4.87-0.64,20.85-3.07,21.49-3.07c0.11,0,0.21,0.11,0.21,0.21
			c0.42,2.01,0.64,4.02,0.95,6.03l0.42,0.11c9.74-5.72,11.54-6.46,15.88-6.46c5.61,0,9.84,5.5,10.8,6.88h0.53
			c10.48-6.03,12.38-6.67,16.41-6.67c4.55,0,8.26,2.54,11.01,6.03c1.8,2.33,3.18,6.14,3.18,9.42c0,7.51-0.21,16.09-0.32,22.86
			l5.5,0.21c0,2.86-0.11,6.03-0.21,8.89c-3.7,0-9,0-13.02,0c-4.45,0-9.31,0.11-13.02,0.11c0-2.86,0-6.14,0-8.89l3.7-0.32
			c0.21,0,0.42-0.21,0.42-0.42c0-5.5,0-12.91,0-18.2c0-1.9-0.11-3.6-0.74-5.08c-0.85-1.69-2.22-2.33-4.13-2.33
			c-2.12,0-5.29,1.27-7.41,2.54c0,6.77-0.11,16.93-0.21,23.5l4.23,0.21c0,2.86,0,6.03-0.11,8.89c-3.7,0-8.89,0-13.23,0
			c-3.92,0-8.26,0.11-11.32,0.11c0-2.96,0.11-6.14,0.11-8.89l3.81-0.32c0.32-0.11,0.42-0.32,0.42-0.53c0-5.29,0-12.81,0-19.05
			c0-1.8-0.11-3.49-0.74-4.76c-0.64-1.48-2.01-1.9-3.6-1.9c-2.12,0-5.61,1.38-7.83,3.07c-0.11,6.14-0.21,16.93-0.21,23.18l4.23,0.21
			c0,2.86,0,6.03,0,8.89c-4.02,0-9.21,0-13.65,0c-4.02,0-9.21,0-13.12,0c0-2.86,0-6.14,0.11-8.89l5.29-0.21
			c0.32,0,0.42-0.21,0.42-0.53v-26.04L-2733.83,414.32z"/>
		<path d="M-2647.36,414.32c0-2.75,0.1-5.93,0.1-8.57c4.87-0.64,20.85-3.07,21.49-3.07c0.11,0,0.21,0.11,0.21,0.21
			c0.42,2.01,0.64,4.02,0.95,6.03l0.42,0.11c9.74-5.72,11.54-6.46,15.88-6.46c5.61,0,9.84,5.5,10.8,6.88h0.53
			c10.48-6.03,12.38-6.67,16.41-6.67c4.55,0,8.26,2.54,11.01,6.03c1.8,2.33,3.18,6.14,3.18,9.42c0,7.51-0.21,16.09-0.32,22.86
			l5.5,0.21c0,2.86-0.11,6.03-0.21,8.89c-3.7,0-9,0-13.02,0c-4.45,0-9.31,0.11-13.02,0.11c0-2.86,0-6.14,0-8.89l3.7-0.32
			c0.21,0,0.42-0.21,0.42-0.42c0-5.5,0-12.91,0-18.2c0-1.9-0.11-3.6-0.74-5.08c-0.85-1.69-2.22-2.33-4.13-2.33
			c-2.12,0-5.29,1.27-7.41,2.54c0,6.77-0.11,16.93-0.21,23.5l4.23,0.21c0,2.86,0,6.03-0.11,8.89c-3.7,0-8.89,0-13.23,0
			c-3.92,0-8.26,0.11-11.32,0.11c0-2.96,0.11-6.14,0.11-8.89l3.81-0.32c0.32-0.11,0.42-0.32,0.42-0.53c0-5.29,0-12.81,0-19.05
			c0-1.8-0.11-3.49-0.74-4.76c-0.64-1.48-2.01-1.9-3.6-1.9c-2.12,0-5.61,1.38-7.83,3.07c-0.11,6.14-0.21,16.93-0.21,23.18l4.23,0.21
			c0,2.86,0,6.03,0,8.89c-4.02,0-9.21,0-13.65,0c-4.02,0-9.21,0-13.12,0c0-2.86,0-6.14,0.11-8.89l5.29-0.21
			c0.32,0,0.42-0.21,0.42-0.53v-26.04L-2647.36,414.32z"/>
		<path d="M-2533.8,402.58c6.56,0,11.54,2.33,14.39,5.61c3.39,4.02,5.4,9.53,5.4,16.3c-0.11,1.59-4.87,6.14-5.72,6.25
			c-2.75,0.32-13.65,0.32-23.07,0.32c0.21,3.49,1.48,5.5,2.86,6.88c2.43,2.33,5.19,2.54,7.94,2.54c4.55,0,11.43-1.69,14.92-2.96
			c0.74,2.75,1.59,6.14,2.01,8.78c-6.25,2.86-15.56,4.97-20.64,4.97c-14.08,0-24.77-6.88-24.77-21.8
			C-2560.47,414.43-2549.67,402.58-2533.8,402.58z M-2540.89,414.22c-1.27,2.12-2.01,4.13-1.9,8.36c3.7,0,8.89-0.11,11.96-0.21
			c0.63,0,0.95-0.42,0.95-1.16c0-2.22-0.42-4.97-1.16-6.56c-0.95-1.91-2.54-3.18-4.76-3.18
			C-2537.61,411.47-2539.4,411.89-2540.89,414.22z"/>
		<path d="M-2513.16,414.43c0-2.96,0.11-6.03,0.11-8.68c5.29-0.42,20.96-3.07,21.59-3.07c0.21,0,0.21,0.11,0.21,0.21
			c0.53,2.22,0.95,4.45,1.48,6.67l0.53,0.11c10.27-6.35,12.59-7.09,17.46-7.09c4.55,0,8.89,4.02,11.01,7.62
			c2.01,3.28,2.43,6.56,2.43,9.42c0,6.03-0.32,14.82-0.42,21.59l5.29,0.21c0,2.86,0,6.03-0.11,8.78c-4.02,0-9.21,0-13.65,0
			c-4.55,0-9.52,0.11-13.23,0.11c0-2.86,0-6.03,0.11-8.78l4.23-0.21c0.21-0.11,0.32-0.21,0.42-0.53c0.11-4.23,0-10.16,0-14.29
			c-0.11-4.87-0.11-7.41-0.85-9c-1.06-2.01-2.43-2.33-4.02-2.33c-2.33,0-5.93,1.69-8.47,3.7c-0.11,6.14-0.32,16.3-0.32,22.33
			l4.55,0.32c0,2.86,0,5.93-0.11,8.68c-3.7,0-9,0-13.23,0c-4.45,0-9.84,0.11-13.97,0.11c0-2.86,0-6.03,0.11-8.78l5.19-0.21
			c0.32-0.11,0.42-0.32,0.42-0.53v-26.14L-2513.16,414.43z"/>
		<path d="M-2443.41,448.09c-3.39-2.96-3.7-5.4-3.7-8.36c0-5.93,0.11-11.32,0.11-12.6c0-2.22,0.11-12.49,0.11-13.87
			c-1.8,0-4.76,0-7.41,0c0-2.96,0.11-6.14,0.32-9c2.22-0.21,4.76-0.42,6.88-0.63c0.42,0,0.74-0.32,0.74-0.85
			c0.32-2.75,0.53-6.24,0.85-8.78c5.29-2.65,15.45-5.61,15.77-5.61c0.21,0,0.32,0.11,0.32,0.42c-0.11,2.33-0.21,11.96-0.32,14.82
			c5.4,0,11.32,0,16.3-0.11c0,3.07-0.11,6.67-0.42,9.84c-4.45,0-11.01-0.11-15.88-0.11c0,0.95-0.11,3.07-0.11,8.89
			c0,4.34,0,8.47,0,13.23c0,2.96,2.54,4.76,4.87,4.76c4.23,0,8.26-0.74,11.54-1.59c0.53,2.86,0.95,6.14,1.16,8.89
			c-7.3,2.86-15.03,3.81-22.86,3.81C-2438.01,451.26-2440.66,450.52-2443.41,448.09z"/>
	</g>
</g>
<g>
	<defs>
		<polygon id="SVGID_00000118370801765250120290000016479474269465818257_" points="-2738.97,375.94 -2738.97,247.46 
			-1570.12,247.46 -1570.12,402.07 		"/>
	</defs>
	<clipPath id="SVGID_00000137109182137416614850000008212957199981175481_">
		<use xlink:href="#SVGID_00000118370801765250120290000016479474269465818257_"  style="overflow:visible;"/>
	</clipPath>
	<g style="clip-path:url(#SVGID_00000137109182137416614850000008212957199981175481_);">
		<path d="M-2654.63,290.84c9.78,0,23.65,2.72,30.17,6.52c0,8.43-8.43,27.45-13.86,30.44c-3.53-1.36-17.39-8.15-28.27-8.15
			c-5.98,0-11.14,1.9-15.22,8.43c-4.08,7.07-5.44,15.22-5.44,27.45c0,13.05,3.53,20.38,8.43,26.09c4.62,5.44,12.77,6.52,18.21,6.52
			c10.87,0,23.37-4.08,31.53-7.34c1.9,7.07,4.08,15.22,5.16,21.74c-17.67,9.51-39.14,13.32-50.28,13.32
			c-33.43,0-58.98-20.66-58.98-54.08C-2733.17,323.18-2702.73,290.84-2654.63,290.84z"/>
		<path d="M-2606.8,402.81c-12.5-10.6-20.11-25.28-20.11-46.2c0-21.47,9.51-40.77,25.82-52.73c11.96-8.97,28.27-13.05,44.57-13.05
			c14.4,0,26.63,3.26,37.23,9.79c13.86,8.97,24.46,26.09,24.46,50.28c0,23.92-13.05,44.3-29.08,54.63
			c-10.6,6.8-24.19,10.33-39.68,10.33C-2579.62,415.86-2595.92,412.05-2606.8,402.81z M-2548.36,388.14
			c5.16-7.07,6.52-17.94,6.52-36.15c0-16.58-2.17-25-4.89-31.53c-2.99-5.71-7.88-8.43-12.77-8.43c-4.89,0-9.24,1.9-12.77,6.8
			c-4.35,6.52-7.07,16.85-7.07,33.43c0,20.11,2.45,29.35,6.25,35.06c3.53,5.44,7.61,7.34,12.5,7.34
			C-2555.97,394.66-2551.62,393.3-2548.36,388.14z"/>
		<path d="M-2486.33,359.33c0.27-8.15,0.54-16.58,0.81-24.46c13.59,0,26.64,0,39.95-0.27c13.86-0.27,28.81-0.27,41.04-0.54
			c0,7.88-0.27,17.39-1.09,25.55c-11.69,0-28.54,0-41.58,0C-2458.06,359.6-2474.64,359.33-2486.33,359.33z"/>
	</g>
</g>
<g>
	<path d="M-995.57,423.98c-0.18,0.09-1.76,0.34-2.94,0.34c-0.27-0.2-0.52-0.47-0.82-0.9h-0.09c-1.47,0.84-1.81,0.9-2.53,0.9
		c-1.09,0-2.45-1.43-2.45-2.53c0-1.36,0.02-2.78,0.04-3.94l-0.81-0.04c0-0.48,0.02-1,0.04-1.47c0.73-0.04,3.39-0.11,3.62-0.12
		c0.04,0,0.05,0.04,0.05,0.07c0,1.25-0.05,2.83-0.05,4.14c0,0.52-0.02,1.15,0.21,1.54c0.21,0.34,0.47,0.36,0.7,0.36
		c0.3,0,0.73-0.13,1.07-0.38c0.02-1.22,0-3.01,0-4.09l-0.88-0.04c0.02-0.5,0.02-1.06,0.04-1.52c0.66-0.02,3.49-0.07,3.76-0.07
		c0.02,0,0.04,0.05,0.04,0.07c-0.02,1.9-0.05,4.05-0.05,6.11c0,0.07,0.02,0.11,0.07,0.11l1-0.04
		C-995.55,422.96-995.57,423.51-995.57,423.98z"/>
	<path d="M-995.05,418.06c0-0.47,0.02-1,0.02-1.45c0.82-0.11,3.53-0.52,3.64-0.52c0.02,0,0.04,0.02,0.04,0.04
		c0.07,0.34,0.11,0.68,0.16,1.02l0.07,0.02c1.65-0.97,1.95-1.09,2.69-1.09c0.95,0,1.67,0.93,1.83,1.16h0.09
		c1.77-1.02,2.1-1.13,2.78-1.13c0.77,0,1.4,0.43,1.86,1.02c0.3,0.39,0.54,1.04,0.54,1.59c0,1.27-0.04,2.72-0.05,3.87l0.93,0.04
		c0,0.48-0.02,1.02-0.04,1.51c-0.63,0-1.52,0-2.2,0c-0.75,0-1.58,0.02-2.2,0.02c0-0.48,0-1.04,0-1.51l0.63-0.05
		c0.04,0,0.07-0.04,0.07-0.07c0-0.93,0-2.19,0-3.08c0-0.32-0.02-0.61-0.13-0.86c-0.14-0.29-0.38-0.39-0.7-0.39
		c-0.36,0-0.9,0.21-1.25,0.43c0,1.15-0.02,2.87-0.04,3.98l0.72,0.04c0,0.48,0,1.02-0.02,1.51c-0.63,0-1.51,0-2.24,0
		c-0.66,0-1.4,0.02-1.92,0.02c0-0.5,0.02-1.04,0.02-1.51l0.65-0.05c0.05-0.02,0.07-0.05,0.07-0.09c0-0.9,0-2.17,0-3.22
		c0-0.3-0.02-0.59-0.13-0.81c-0.11-0.25-0.34-0.32-0.61-0.32c-0.36,0-0.95,0.23-1.33,0.52c-0.02,1.04-0.04,2.87-0.04,3.92l0.72,0.04
		c0,0.48,0,1.02,0,1.51c-0.68,0-1.56,0-2.31,0c-0.68,0-1.56,0-2.22,0c0-0.48,0-1.04,0.02-1.51l0.9-0.04c0.05,0,0.07-0.04,0.07-0.09
		v-4.41L-995.05,418.06z"/>
	<path d="M-980.07,418.12c0-0.48,0.04-1.06,0.04-1.52c0.9-0.13,4.08-0.52,4.21-0.52c0.04,0,0.04,0.02,0.04,0.05
		c0,2.06-0.02,4.68-0.02,6.75c-0.02,1.15-0.11,1.68-0.52,2.54c-0.63,1.38-1.65,2.78-2.78,3.35c-0.59,0-1.72-0.88-1.77-1.38
		c0.65-0.32,1.34-0.74,1.65-1.27c0.38-0.68,0.56-1.49,0.54-3.4l-0.04-4.55L-980.07,418.12z M-975.98,413.32
		c0,0.98-0.7,1.65-1.68,1.65c-0.73,0-1.58-0.65-1.58-1.58c0-0.77,0.68-1.52,1.67-1.52C-976.5,411.86-975.98,412.62-975.98,413.32z"
		/>
	<path d="M-969.82,416.08c1.11,0,1.95,0.39,2.44,0.95c0.57,0.68,0.91,1.61,0.91,2.76c-0.02,0.27-0.82,1.04-0.97,1.06
		c-0.47,0.05-2.31,0.05-3.91,0.05c0.04,0.59,0.25,0.93,0.48,1.16c0.41,0.39,0.88,0.43,1.34,0.43c0.77,0,1.93-0.29,2.53-0.5
		c0.13,0.47,0.27,1.04,0.34,1.49c-1.06,0.48-2.63,0.84-3.49,0.84c-2.38,0-4.19-1.16-4.19-3.69
		C-974.33,418.08-972.51,416.08-969.82,416.08z M-971.02,418.05c-0.21,0.36-0.34,0.7-0.32,1.42c0.63,0,1.51-0.02,2.02-0.04
		c0.11,0,0.16-0.07,0.16-0.2c0-0.38-0.07-0.84-0.2-1.11c-0.16-0.32-0.43-0.54-0.81-0.54C-970.46,417.58-970.77,417.65-971.02,418.05
		z"/>
	<path d="M-964.03,423.78c-0.57-0.5-0.63-0.91-0.63-1.42c0-1,0.02-1.92,0.02-2.13c0-0.38,0.02-2.11,0.02-2.35c-0.3,0-0.81,0-1.25,0
		c0-0.5,0.02-1.04,0.05-1.52c0.38-0.04,0.81-0.07,1.16-0.11c0.07,0,0.13-0.05,0.13-0.14c0.05-0.47,0.09-1.06,0.14-1.49
		c0.9-0.45,2.62-0.95,2.67-0.95c0.04,0,0.05,0.02,0.05,0.07c-0.02,0.39-0.04,2.02-0.05,2.51c0.91,0,1.92,0,2.76-0.02
		c0,0.52-0.02,1.13-0.07,1.67c-0.75,0-1.86-0.02-2.69-0.02c0,0.16-0.02,0.52-0.02,1.51c0,0.73,0,1.43,0,2.24
		c0,0.5,0.43,0.81,0.82,0.81c0.72,0,1.4-0.12,1.95-0.27c0.09,0.48,0.16,1.04,0.2,1.51c-1.24,0.48-2.54,0.65-3.87,0.65
		C-963.12,424.32-963.56,424.19-964.03,423.78z"/>
	<path d="M-958.3,418.08c0-0.5,0.02-1.02,0.02-1.47c0.9-0.07,3.55-0.52,3.66-0.52c0.04,0,0.04,0.02,0.04,0.04
		c0.09,0.38,0.16,0.75,0.25,1.13l0.09,0.02c1.74-1.08,2.13-1.2,2.96-1.2c0.77,0,1.51,0.68,1.86,1.29c0.34,0.56,0.41,1.11,0.41,1.59
		c0,1.02-0.05,2.51-0.07,3.65l0.9,0.04c0,0.48,0,1.02-0.02,1.49c-0.68,0-1.56,0-2.31,0c-0.77,0-1.61,0.02-2.24,0.02
		c0-0.48,0-1.02,0.02-1.49l0.72-0.04c0.04-0.02,0.05-0.04,0.07-0.09c0.02-0.72,0-1.72,0-2.42c-0.02-0.82-0.02-1.25-0.14-1.52
		c-0.18-0.34-0.41-0.39-0.68-0.39c-0.39,0-1,0.29-1.43,0.63c-0.02,1.04-0.05,2.76-0.05,3.78l0.77,0.05c0,0.48,0,1-0.02,1.47
		c-0.63,0-1.52,0-2.24,0c-0.75,0-1.67,0.02-2.36,0.02c0-0.48,0-1.02,0.02-1.49l0.88-0.04c0.05-0.02,0.07-0.05,0.07-0.09v-4.43
		L-958.3,418.08z"/>
	<path d="M-947.58,418.08c0-0.48,0.02-1.04,0.04-1.52c0.97-0.07,3.87-0.48,4.01-0.48c0.04,0,0.04,0.02,0.04,0.05
		c-0.02,1.93-0.05,4.69-0.05,6.48l0.99,0.04c0,0.5,0,1,0,1.49c-0.68,0-1.7,0-2.47,0c-0.75,0-1.7,0.02-2.44,0.02
		c0-0.48,0-1.02,0.02-1.49l0.95-0.04c0.05-0.02,0.07-0.05,0.07-0.09v-4.41L-947.58,418.08z M-943.55,413.41
		c0,0.97-0.79,1.61-1.68,1.61c-0.77,0-1.56-0.66-1.56-1.58c0-0.75,0.66-1.49,1.65-1.49C-944.1,411.95-943.55,412.65-943.55,413.41z"
		/>
	<path d="M-936.7,416.08c0.65,0,1.56,0.18,1.99,0.43c0,0.56-0.56,1.81-0.91,2.01c-0.23-0.09-1.15-0.54-1.86-0.54
		c-0.39,0-0.73,0.13-1,0.56c-0.27,0.47-0.36,1-0.36,1.81c0,0.86,0.23,1.34,0.56,1.72c0.3,0.36,0.84,0.43,1.2,0.43
		c0.72,0,1.54-0.27,2.08-0.48c0.13,0.47,0.27,1,0.34,1.43c-1.16,0.63-2.58,0.88-3.31,0.88c-2.2,0-3.89-1.36-3.89-3.57
		C-941.88,418.21-939.87,416.08-936.7,416.08z M-935.57,411.81c0.29,0.21,0.61,0.52,0.84,0.79c-0.63,0.7-1.54,1.79-2.19,2.53
		c-0.34,0-0.79,0-1.15-0.02c-0.66-0.79-1.45-1.7-2.17-2.51c0.29-0.29,0.61-0.56,0.91-0.77c0.56,0.54,1.2,1.13,1.85,1.72
		C-936.81,412.96-936.15,412.33-935.57,411.81z"/>
	<path d="M-934.18,422.67l0.88-0.05c0.04,0,0.05-0.05,0.05-0.07c0-2.74,0.02-6.23,0.02-8.92l-1.15-0.04c0-0.48,0.02-1.02,0.02-1.49
		c1-0.13,3.87-0.5,4.05-0.5c0.04,0,0.05,0.02,0.05,0.07c0,2.08-0.04,4.73-0.05,7.52c0.3,0,0.63-0.02,0.95-0.05
		c0.3-0.27,0.77-0.72,1.24-1.27c0.04-0.04,0-0.05-0.04-0.05l-0.66-0.04c0-0.5,0-1.04,0.02-1.52c0.81,0,1.74,0,2.51,0
		c0.5-0.02,1.06-0.02,1.56-0.02c0,0.48-0.02,1.02-0.04,1.51l-0.65,0.05c-0.9,0.73-1.49,1.24-1.97,1.61v0.13
		c0.36,0.23,0.84,0.61,1.27,1.67c0.23,0.56,0.45,1.02,0.57,1.25c0.07,0.11,0.18,0.16,0.27,0.16l0.9,0.04c0,0.48,0,1.02-0.02,1.49
		c-0.66,0-3.33,0.04-3.57,0.04c-0.23-0.47-0.47-1.2-0.77-2.11c-0.27-0.81-0.61-1.45-0.9-1.45c-0.21,0-0.45,0-0.68,0
		c-0.02,0.57-0.02,1.43-0.04,2.01l0.66,0.05c0,0.48,0,1-0.02,1.47c-0.59,0-1.47,0-2.2,0c-0.73,0-1.58,0.02-2.31,0.02
		C-934.21,423.67-934.19,423.13-934.18,422.67z"/>
	<path d="M-919.03,423.53c-1.07,0.54-1.92,0.79-2.6,0.79c-0.95,0-2.33-0.95-2.33-2.08c0-1,1.18-2.71,4.03-2.71c0.39,0,0.68,0,0.86,0
		c0.05-0.9-0.27-1.42-1.07-1.42c-0.61,0-1.56,0.5-2.26,1c-0.34-0.39-0.66-0.84-0.95-1.29c1.29-1.04,2.63-1.76,4.34-1.76
		c1.38,0,2.74,1.16,2.74,2.69c0,1.18-0.02,2.87-0.04,3.64c0,0.11,0,0.14,0.09,0.14l0.95-0.05c0,0.47,0.02,1,0,1.47
		c-0.29,0.11-1.56,0.36-2.99,0.36c-0.18-0.16-0.41-0.45-0.68-0.79H-919.03z M-920.29,422.6c0.47,0,0.93-0.23,1.2-0.39
		c0.04-0.04,0.04-0.09,0.04-0.11c0-0.43,0-0.77,0-1.24c-0.11-0.02-0.25-0.02-0.38-0.02c-1.16,0-1.68,0.52-1.68,1.06
		C-921.11,422.33-920.65,422.6-920.29,422.6z"/>
</g>
<g>
	<path d="M-910.37,423.33c-0.82-0.7-1.33-1.67-1.33-3.05c0-1.42,0.63-2.69,1.7-3.47c0.79-0.59,1.86-0.86,2.94-0.86
		c0.95,0,1.76,0.21,2.45,0.64c0.91,0.59,1.61,1.72,1.61,3.31c0,1.58-0.86,2.92-1.92,3.6c-0.7,0.45-1.59,0.68-2.62,0.68
		C-908.58,424.19-909.65,423.94-910.37,423.33z M-906.52,422.36c0.34-0.47,0.43-1.18,0.43-2.38c0-1.09-0.14-1.65-0.32-2.08
		c-0.2-0.38-0.52-0.56-0.84-0.56c-0.32,0-0.61,0.13-0.84,0.45c-0.29,0.43-0.47,1.11-0.47,2.2c0,1.33,0.16,1.93,0.41,2.31
		c0.23,0.36,0.5,0.48,0.82,0.48C-907.02,422.79-906.73,422.7-906.52,422.36z"/>
	<path d="M-902.02,422.56l0.84-0.04c0.05-0.02,0.07-0.04,0.07-0.07c0-1.45,0-3.12,0-4.52l-1.06-0.05c0-0.48,0.02-1,0.04-1.47
		c0.81-0.09,3.48-0.47,3.57-0.47c0.02,0,0.04,0,0.04,0.04c0.05,0.77,0.13,1.52,0.18,2.29l0.11,0.02c1.11-2.11,1.52-2.35,2.42-2.35
		c0.45,0,0.93,0.11,1.29,0.23c0,0.84-0.5,2.29-0.84,2.6c-0.16-0.04-0.7-0.18-1.13-0.18c-0.18,0-0.34,0.02-0.52,0.16
		c-0.32,0.27-0.59,0.59-0.93,1.24c-0.21,0.43-0.25,1-0.27,1.51c0,0.3,0,0.72,0,0.98l1.47,0.05c0,0.48,0,0.98-0.04,1.47
		c-0.75,0-1.86,0-2.71,0c-0.79,0-1.79,0.02-2.54,0.02C-902.04,423.55-902.04,423.01-902.02,422.56z"/>
	<path d="M-892.2,421.81c-0.82-0.36-1.93-1.2-1.93-2.58c0-1.93,1.92-3.28,4.17-3.28c0.79,0,1.54,0.11,1.74,0.14
		c0.18,0.04,0.3,0.07,0.39,0.05c0.84-0.04,2.22-0.11,2.69-0.14c0.05,0.5,0.05,1.11,0.02,1.61c-0.36,0.02-1,0.02-1.43,0.02
		l-0.04,0.07c0.21,0.29,0.38,0.77,0.38,1.29c0,0.61-0.23,1.38-0.81,1.99c-0.59,0.59-1.74,1.16-3.6,1.11
		c-0.23,0.2-0.38,0.43-0.38,0.59c0,0.38,0.34,0.43,1.79,0.48c1.95,0.05,2.49,0.14,3.15,0.61c0.61,0.43,0.84,0.77,0.84,1.67
		c0,1.18-0.9,2.2-2.38,2.72c-0.86,0.32-1.93,0.48-3.06,0.48c-2.53,0-4.03-0.77-4.03-2.13c0-0.23,0.11-0.38,0.38-0.56
		c0.79-0.54,1.29-0.82,1.7-1.09v-0.11c-0.68-0.29-1.36-0.63-1.36-1.63c0-0.2,0.07-0.25,1.77-1.2V421.81z M-889.37,425.34
		c-0.84-0.05-1.49-0.13-1.86-0.14c-0.3,0.38-0.48,0.7-0.48,1.15c0,0.63,0.77,0.95,1.63,0.95c0.59,0,1.15-0.11,1.51-0.34
		c0.34-0.2,0.52-0.54,0.52-0.91C-888.06,425.55-888.26,425.41-889.37,425.34z M-890.12,420.8c0.65,0,1.02-0.61,1.02-1.93
		c0-0.63-0.07-0.95-0.27-1.29c-0.14-0.27-0.45-0.36-0.75-0.36c-0.65,0-1.09,0.65-1.09,1.74
		C-891.21,420.43-890.75,420.8-890.12,420.8z"/>
	<path d="M-880,423.4c-1.08,0.54-1.92,0.79-2.6,0.79c-0.95,0-2.33-0.95-2.33-2.08c0-1,1.18-2.71,4.03-2.71c0.39,0,0.68,0,0.86,0
		c0.05-0.9-0.27-1.42-1.07-1.42c-0.61,0-1.56,0.5-2.26,1c-0.34-0.39-0.66-0.84-0.95-1.29c1.29-1.04,2.63-1.76,4.34-1.76
		c1.38,0,2.74,1.16,2.74,2.69c0,1.18-0.02,2.87-0.04,3.64c0,0.11,0,0.14,0.09,0.14l0.95-0.05c0,0.47,0.02,1,0,1.47
		c-0.29,0.11-1.56,0.36-2.99,0.36c-0.18-0.16-0.41-0.45-0.68-0.79H-880z M-881.25,422.47c0.47,0,0.93-0.23,1.2-0.39
		c0.04-0.04,0.04-0.09,0.04-0.11c0-0.43,0-0.77,0-1.24c-0.11-0.02-0.25-0.02-0.38-0.02c-1.16,0-1.68,0.52-1.68,1.06
		C-882.07,422.2-881.61,422.47-881.25,422.47z"/>
	<path d="M-875.75,417.96c0-0.5,0.02-1.02,0.02-1.47c0.9-0.07,3.55-0.52,3.66-0.52c0.04,0,0.04,0.02,0.04,0.04
		c0.09,0.38,0.16,0.75,0.25,1.13l0.09,0.02c1.74-1.08,2.13-1.2,2.96-1.2c0.77,0,1.51,0.68,1.86,1.29c0.34,0.56,0.41,1.11,0.41,1.59
		c0,1.02-0.05,2.51-0.07,3.65l0.9,0.04c0,0.48,0,1.02-0.02,1.49c-0.68,0-1.56,0-2.31,0c-0.77,0-1.61,0.02-2.24,0.02
		c0-0.48,0-1.02,0.02-1.49l0.72-0.04c0.04-0.02,0.05-0.04,0.07-0.09c0.02-0.72,0-1.72,0-2.42c-0.02-0.82-0.02-1.25-0.14-1.52
		c-0.18-0.34-0.41-0.39-0.68-0.39c-0.39,0-1,0.29-1.43,0.63c-0.02,1.04-0.05,2.76-0.05,3.78l0.77,0.05c0,0.48,0,1-0.02,1.47
		c-0.63,0-1.52,0-2.24,0c-0.75,0-1.67,0.02-2.37,0.02c0-0.48,0-1.02,0.02-1.49l0.88-0.04c0.05-0.02,0.07-0.05,0.07-0.09v-4.43
		L-875.75,417.96z"/>
	<path d="M-865.03,417.96c0-0.48,0.02-1.04,0.04-1.52c0.97-0.07,3.87-0.48,4.01-0.48c0.04,0,0.04,0.02,0.04,0.05
		c-0.02,1.93-0.05,4.69-0.05,6.48l0.99,0.04c0,0.5,0,1,0,1.49c-0.68,0-1.7,0-2.47,0c-0.75,0-1.7,0.02-2.44,0.02
		c0-0.48,0-1.02,0.02-1.49l0.95-0.04c0.05-0.02,0.07-0.05,0.07-0.09v-4.41L-865.03,417.96z M-861,413.28c0,0.97-0.79,1.61-1.68,1.61
		c-0.77,0-1.56-0.66-1.56-1.58c0-0.75,0.66-1.49,1.65-1.49C-861.56,411.83-861,412.53-861,413.28z"/>
	<path d="M-851.32,421.11c-0.21,0.95-0.47,1.95-0.72,2.92c-0.29,0-2.02-0.02-3.22-0.02h-2.28c-0.27,0-1.27,0-1.58,0
		c-0.14-0.38-0.32-0.93-0.45-1.34c1.59-1.72,2.88-3.01,4.8-4.98l-0.02-0.07c-0.38,0-1.52-0.02-1.85-0.02
		c-0.32,0-0.39,0.12-0.47,0.29l-0.52,1.42c-0.57-0.09-1.16-0.2-1.65-0.3c0.18-0.97,0.38-1.95,0.59-2.9c0.2,0,0.86,0.02,1.97,0.04
		c1.4,0,3.05,0,4.68,0c0.2,0.61,0.38,1.31,0.48,1.92c-0.73,0.88-3.8,3.71-4.53,4.39l0.04,0.07c0.34,0,1.02,0,1.92-0.02
		c0.32-0.02,0.54-0.14,0.63-0.34l0.57-1.42C-852.36,420.84-851.81,420.98-851.32,421.11z"/>
	<path d="M-845.64,423.4c-1.08,0.54-1.92,0.79-2.6,0.79c-0.95,0-2.33-0.95-2.33-2.08c0-1,1.18-2.71,4.03-2.71c0.39,0,0.68,0,0.86,0
		c0.05-0.9-0.27-1.42-1.07-1.42c-0.61,0-1.56,0.5-2.26,1c-0.34-0.39-0.66-0.84-0.95-1.29c1.29-1.04,2.63-1.76,4.34-1.76
		c1.38,0,2.74,1.16,2.74,2.69c0,1.18-0.02,2.87-0.04,3.64c0,0.11,0,0.14,0.09,0.14l0.95-0.05c0,0.47,0.02,1,0,1.47
		c-0.29,0.11-1.56,0.36-2.99,0.36c-0.18-0.16-0.41-0.45-0.68-0.79H-845.64z M-846.9,422.47c0.47,0,0.93-0.23,1.2-0.39
		c0.04-0.04,0.04-0.09,0.04-0.11c0-0.43,0-0.77,0-1.24c-0.11-0.02-0.25-0.02-0.38-0.02c-1.16,0-1.68,0.52-1.68,1.06
		C-847.72,422.2-847.26,422.47-846.9,422.47z"/>
	<path d="M-836.07,415.95c0.65,0,1.56,0.18,1.99,0.43c0,0.56-0.56,1.81-0.91,2.01c-0.23-0.09-1.15-0.54-1.86-0.54
		c-0.39,0-0.73,0.13-1,0.56c-0.27,0.47-0.36,1-0.36,1.81c0,0.86,0.23,1.34,0.56,1.72c0.3,0.36,0.84,0.43,1.2,0.43
		c0.72,0,1.54-0.27,2.08-0.48c0.13,0.47,0.27,1,0.34,1.43c-1.16,0.63-2.58,0.88-3.31,0.88c-2.2,0-3.89-1.36-3.89-3.57
		C-841.25,418.08-839.25,415.95-836.07,415.95z"/>
	<path d="M-833.53,417.96c0-0.48,0.02-1.04,0.04-1.52c0.97-0.07,3.87-0.48,4.01-0.48c0.04,0,0.04,0.02,0.04,0.05
		c-0.02,1.93-0.05,4.69-0.05,6.48l0.99,0.04c0,0.5,0,1,0,1.49c-0.68,0-1.7,0-2.47,0c-0.75,0-1.7,0.02-2.44,0.02
		c0-0.48,0-1.02,0.02-1.49l0.95-0.04c0.05-0.02,0.07-0.05,0.07-0.09v-4.41L-833.53,417.96z M-829.5,413.28
		c0,0.97-0.79,1.61-1.68,1.61c-0.77,0-1.56-0.66-1.56-1.58c0-0.75,0.66-1.49,1.65-1.49C-830.05,411.83-829.5,412.53-829.5,413.28z"
		/>
	<path d="M-828.12,417.99c0-0.48,0.04-1.06,0.04-1.52c0.9-0.13,4.08-0.52,4.21-0.52c0.04,0,0.04,0.02,0.04,0.05
		c0,2.06-0.02,4.68-0.02,6.75c-0.02,1.15-0.11,1.68-0.52,2.54c-0.63,1.38-1.65,2.78-2.78,3.35c-0.59,0-1.72-0.88-1.77-1.38
		c0.64-0.32,1.34-0.74,1.65-1.27c0.38-0.68,0.56-1.49,0.54-3.4l-0.04-4.55L-828.12,417.99z M-824.03,413.19
		c0,0.98-0.7,1.65-1.68,1.65c-0.73,0-1.58-0.65-1.58-1.58c0-0.77,0.68-1.52,1.67-1.52C-824.55,411.74-824.03,412.49-824.03,413.19z"
		/>
	<path d="M-817.65,423.4c-1.07,0.54-1.92,0.79-2.6,0.79c-0.95,0-2.33-0.95-2.33-2.08c0-1,1.18-2.71,4.03-2.71c0.39,0,0.68,0,0.86,0
		c0.05-0.9-0.27-1.42-1.07-1.42c-0.61,0-1.56,0.5-2.26,1c-0.34-0.39-0.66-0.84-0.95-1.29c1.29-1.04,2.63-1.76,4.34-1.76
		c1.38,0,2.74,1.16,2.74,2.69c0,1.18-0.02,2.87-0.04,3.64c0,0.11,0,0.14,0.09,0.14l0.95-0.05c0,0.47,0.02,1,0,1.47
		c-0.29,0.11-1.56,0.36-2.99,0.36c-0.18-0.16-0.41-0.45-0.68-0.79H-817.65z M-818.91,422.47c0.47,0,0.93-0.23,1.2-0.39
		c0.04-0.04,0.04-0.09,0.04-0.11c0-0.43,0-0.77,0-1.24c-0.11-0.02-0.25-0.02-0.38-0.02c-1.16,0-1.68,0.52-1.68,1.06
		C-819.73,422.2-819.27,422.47-818.91,422.47z"/>
</g>
<g>
	<defs>
		<polygon id="SVGID_00000086650706727576567480000010533244628090619285_" points="-1394.38,391.72 -1394.38,327.66 
			-811.61,327.66 -811.61,404.75 		"/>
	</defs>
	<clipPath id="SVGID_00000009589409793864750430000012097141508328994706_">
		<use xlink:href="#SVGID_00000086650706727576567480000010533244628090619285_"  style="overflow:visible;"/>
	</clipPath>
	<g style="clip-path:url(#SVGID_00000009589409793864750430000012097141508328994706_);">
		<path d="M-1352.33,349.29c4.88,0,11.79,1.36,15.04,3.25c0,4.2-4.2,13.69-6.91,15.18c-1.76-0.68-8.67-4.07-14.09-4.07
			c-2.98,0-5.56,0.95-7.59,4.2c-2.03,3.52-2.71,7.59-2.71,13.69c0,6.5,1.76,10.16,4.2,13.01c2.3,2.71,6.37,3.25,9.08,3.25
			c5.42,0,11.65-2.03,15.72-3.66c0.95,3.52,2.03,7.59,2.57,10.84c-8.81,4.74-19.51,6.64-25.07,6.64c-16.67,0-29.41-10.3-29.41-26.97
			C-1391.49,365.42-1376.31,349.29-1352.33,349.29z"/>
		<path d="M-1328.48,405.12c-6.23-5.29-10.03-12.6-10.03-23.04c0-10.71,4.74-20.33,12.87-26.29c5.96-4.47,14.09-6.5,22.22-6.5
			c7.18,0,13.28,1.63,18.56,4.88c6.91,4.47,12.2,13.01,12.2,25.07c0,11.92-6.5,22.09-14.5,27.24c-5.28,3.39-12.06,5.15-19.78,5.15
			C-1314.93,411.62-1323.06,409.73-1328.48,405.12z M-1299.34,397.8c2.57-3.52,3.25-8.94,3.25-18.02c0-8.27-1.08-12.47-2.44-15.72
			c-1.49-2.85-3.93-4.2-6.37-4.2c-2.44,0-4.61,0.95-6.37,3.39c-2.17,3.25-3.52,8.4-3.52,16.67c0,10.03,1.22,14.63,3.12,17.48
			c1.76,2.71,3.79,3.66,6.23,3.66C-1303.14,401.06-1300.97,400.38-1299.34,397.8z"/>
		<path d="M-1268.41,383.44c0.14-4.07,0.27-8.27,0.41-12.2c6.78,0,13.28,0,19.92-0.14c6.91-0.14,14.36-0.14,20.46-0.27
			c0,3.93-0.14,8.67-0.54,12.74c-5.83,0-14.23,0-20.73,0C-1254.32,383.57-1262.59,383.44-1268.41,383.44z"/>
		<path d="M-1226.17,364.33c0-3.52,0.13-7.59,0.13-10.98c6.23-0.81,26.7-3.93,27.51-3.93c0.14,0,0.27,0.14,0.27,0.27
			c0.54,2.57,0.81,5.15,1.22,7.72l0.54,0.14c12.47-7.32,14.77-8.27,20.33-8.27c7.18,0,12.6,7.05,13.82,8.81h0.68
			c13.42-7.72,15.85-8.54,21-8.54c5.83,0,10.57,3.25,14.09,7.72c2.3,2.98,4.07,7.86,4.07,12.06c0,9.62-0.27,20.6-0.41,29.27
			l7.05,0.27c0,3.66-0.14,7.72-0.27,11.38c-4.74,0-11.52,0-16.67,0c-5.69,0-11.92,0.14-16.67,0.14c0-3.66,0-7.86,0-11.38l4.74-0.41
			c0.27,0,0.54-0.27,0.54-0.54c0-7.05,0-16.53,0-23.31c0-2.44-0.14-4.61-0.95-6.5c-1.08-2.17-2.85-2.98-5.29-2.98
			c-2.71,0-6.78,1.63-9.49,3.25c0,8.67-0.14,21.68-0.27,30.08l5.42,0.27c0,3.66,0,7.72-0.14,11.38c-4.74,0-11.38,0-16.94,0
			c-5.01,0-10.57,0.14-14.5,0.14c0-3.79,0.14-7.86,0.14-11.38l4.88-0.41c0.41-0.14,0.54-0.41,0.54-0.68c0-6.78,0-16.4,0-24.39
			c0-2.3-0.14-4.47-0.95-6.1c-0.81-1.9-2.57-2.44-4.61-2.44c-2.71,0-7.18,1.76-10.03,3.93c-0.14,7.86-0.27,21.68-0.27,29.68
			l5.42,0.27c0,3.66,0,7.72,0,11.38c-5.15,0-11.79,0-17.48,0c-5.15,0-11.79,0-16.8,0c0-3.66,0-7.86,0.14-11.38l6.78-0.27
			c0.41,0,0.54-0.27,0.54-0.68V364.6L-1226.17,364.33z"/>
		<path d="M-1115.47,364.33c0-3.52,0.13-7.59,0.13-10.98c6.23-0.81,26.7-3.93,27.51-3.93c0.14,0,0.27,0.14,0.27,0.27
			c0.54,2.57,0.81,5.15,1.22,7.72l0.54,0.14c12.47-7.32,14.77-8.27,20.33-8.27c7.18,0,12.6,7.05,13.82,8.81h0.68
			c13.42-7.72,15.85-8.54,21-8.54c5.83,0,10.57,3.25,14.09,7.72c2.3,2.98,4.07,7.86,4.07,12.06c0,9.62-0.27,20.6-0.41,29.27
			l7.05,0.27c0,3.66-0.14,7.72-0.27,11.38c-4.74,0-11.52,0-16.67,0c-5.69,0-11.93,0.14-16.67,0.14c0-3.66,0-7.86,0-11.38l4.74-0.41
			c0.27,0,0.54-0.27,0.54-0.54c0-7.05,0-16.53,0-23.31c0-2.44-0.14-4.61-0.95-6.5c-1.08-2.17-2.85-2.98-5.29-2.98
			c-2.71,0-6.78,1.63-9.48,3.25c0,8.67-0.14,21.68-0.27,30.08l5.42,0.27c0,3.66,0,7.72-0.14,11.38c-4.74,0-11.38,0-16.94,0
			c-5.01,0-10.57,0.14-14.5,0.14c0-3.79,0.14-7.86,0.14-11.38l4.88-0.41c0.41-0.14,0.54-0.41,0.54-0.68c0-6.78,0-16.4,0-24.39
			c0-2.3-0.14-4.47-0.95-6.1c-0.81-1.9-2.57-2.44-4.61-2.44c-2.71,0-7.18,1.76-10.03,3.93c-0.14,7.86-0.27,21.68-0.27,29.68
			l5.42,0.27c0,3.66,0,7.72,0,11.38c-5.15,0-11.79,0-17.48,0c-5.15,0-11.79,0-16.8,0c0-3.66,0-7.86,0.14-11.38l6.78-0.27
			c0.41,0,0.54-0.27,0.54-0.68V364.6L-1115.47,364.33z"/>
		<path d="M-970.07,349.29c8.4,0,14.77,2.98,18.43,7.18c4.34,5.15,6.91,12.2,6.91,20.87c-0.14,2.03-6.23,7.86-7.32,8
			c-3.52,0.41-17.48,0.41-29.54,0.41c0.27,4.47,1.9,7.05,3.66,8.81c3.12,2.98,6.64,3.25,10.16,3.25c5.83,0,14.64-2.17,19.11-3.79
			c0.95,3.52,2.03,7.86,2.57,11.25c-8,3.66-19.92,6.37-26.42,6.37c-18.02,0-31.71-8.81-31.71-27.91
			C-1004.22,364.47-990.4,349.29-970.07,349.29z M-979.15,364.2c-1.63,2.71-2.57,5.28-2.44,10.71c4.74,0,11.38-0.14,15.31-0.27
			c0.81,0,1.22-0.54,1.22-1.49c0-2.85-0.54-6.37-1.49-8.4c-1.22-2.44-3.25-4.07-6.1-4.07C-974.95,360.67-977.25,361.22-979.15,364.2
			z"/>
		<path d="M-943.65,364.47c0-3.79,0.14-7.72,0.14-11.11c6.78-0.54,26.83-3.93,27.64-3.93c0.27,0,0.27,0.14,0.27,0.27
			c0.68,2.85,1.22,5.69,1.9,8.54l0.68,0.14c13.14-8.13,16.13-9.08,22.36-9.08c5.83,0,11.38,5.15,14.09,9.76
			c2.57,4.2,3.12,8.4,3.12,12.06c0,7.72-0.41,18.97-0.54,27.64l6.78,0.27c0,3.66,0,7.72-0.14,11.25c-5.15,0-11.79,0-17.48,0
			c-5.83,0-12.2,0.14-16.94,0.14c0-3.66,0-7.72,0.14-11.25l5.42-0.27c0.27-0.14,0.41-0.27,0.54-0.68c0.14-5.42,0-13.01,0-18.29
			c-0.14-6.23-0.14-9.49-1.08-11.52c-1.35-2.57-3.12-2.98-5.15-2.98c-2.98,0-7.59,2.17-10.84,4.74c-0.14,7.86-0.41,20.87-0.41,28.59
			l5.83,0.41c0,3.66,0,7.59-0.14,11.11c-4.74,0-11.52,0-16.94,0c-5.69,0-12.6,0.14-17.89,0.14c0-3.66,0-7.72,0.14-11.25l6.64-0.27
			c0.41-0.14,0.54-0.41,0.54-0.68v-33.47L-943.65,364.47z"/>
		<path d="M-854.35,407.56c-4.34-3.79-4.74-6.91-4.74-10.7c0-7.59,0.14-14.5,0.14-16.13c0-2.85,0.14-15.99,0.14-17.75
			c-2.3,0-6.1,0-9.49,0c0-3.79,0.14-7.86,0.41-11.52c2.85-0.27,6.1-0.54,8.81-0.81c0.54,0,0.95-0.41,0.95-1.08
			c0.41-3.52,0.68-7.99,1.08-11.25c6.78-3.39,19.78-7.18,20.19-7.18c0.27,0,0.41,0.14,0.41,0.54c-0.14,2.98-0.27,15.31-0.41,18.97
			c6.91,0,14.5,0,20.87-0.14c0,3.93-0.14,8.54-0.54,12.6c-5.69,0-14.09-0.14-20.33-0.14c0,1.22-0.14,3.93-0.14,11.38
			c0,5.56,0,10.84,0,16.94c0,3.79,3.25,6.1,6.23,6.1c5.42,0,10.57-0.95,14.77-2.03c0.68,3.66,1.22,7.86,1.49,11.38
			c-9.35,3.66-19.24,4.88-29.27,4.88C-847.44,411.62-850.83,410.68-854.35,407.56z"/>
	</g>
</g>
<g>
	<defs>
		<polygon id="SVGID_00000100343148402973962490000007634676755584995215_" points="-694.65,441.48 -694.65,387.03 -199.28,387.03 
			-199.28,452.55 		"/>
	</defs>
	<clipPath id="SVGID_00000149372155526414634040000013729711769431451578_">
		<use xlink:href="#SVGID_00000100343148402973962490000007634676755584995215_"  style="overflow:visible;"/>
	</clipPath>
	<g style="clip-path:url(#SVGID_00000149372155526414634040000013729711769431451578_);">
		<path class="st1" d="M-551.67,418.2c0-3,0.11-6.45,0.11-9.33c5.3-0.69,22.69-3.34,23.38-3.34c0.12,0,0.23,0.12,0.23,0.23
			c0.46,2.19,0.69,4.38,1.04,6.57l0.46,0.12c10.6-6.22,12.56-7.03,17.28-7.03c6.1,0,10.71,5.99,11.75,7.49h0.58
			c11.4-6.56,13.48-7.26,17.85-7.26c4.95,0,8.98,2.76,11.98,6.57c1.96,2.53,3.46,6.68,3.46,10.25c0,8.18-0.23,17.51-0.35,24.88
			l5.99,0.23c0,3.11-0.12,6.57-0.23,9.68c-4.03,0-9.79,0-14.17,0c-4.84,0-10.14,0.12-14.17,0.12c0-3.11,0-6.68,0-9.68l4.03-0.35
			c0.23,0,0.46-0.23,0.46-0.46c0-5.99,0-14.05,0-19.81c0-2.07-0.12-3.92-0.81-5.53c-0.92-1.84-2.42-2.53-4.49-2.53
			c-2.3,0-5.76,1.38-8.06,2.76c0,7.37-0.12,18.43-0.23,25.57l4.61,0.23c0,3.11,0,6.57-0.12,9.68c-4.03,0-9.68,0-14.4,0
			c-4.26,0-8.98,0.12-12.32,0.12c0-3.22,0.12-6.68,0.12-9.68l4.15-0.35c0.34-0.12,0.46-0.34,0.46-0.58c0-5.76,0-13.94,0-20.73
			c0-1.96-0.12-3.8-0.81-5.18c-0.69-1.61-2.19-2.07-3.92-2.07c-2.3,0-6.1,1.5-8.52,3.34c-0.12,6.68-0.23,18.43-0.23,25.23l4.61,0.23
			c0,3.11,0,6.57,0,9.68c-4.38,0-10.02,0-14.86,0c-4.38,0-10.02,0-14.28,0c0-3.11,0-6.68,0.12-9.68l5.76-0.23
			c0.35,0,0.46-0.23,0.46-0.58v-28.34L-551.67,418.2z"/>
		<path class="st1" d="M-457.57,418.2c0-3,0.11-6.45,0.11-9.33c5.3-0.69,22.69-3.34,23.38-3.34c0.12,0,0.23,0.12,0.23,0.23
			c0.46,2.19,0.69,4.38,1.04,6.57l0.46,0.12c10.6-6.22,12.56-7.03,17.28-7.03c6.1,0,10.71,5.99,11.75,7.49h0.58
			c11.4-6.56,13.48-7.26,17.85-7.26c4.95,0,8.98,2.76,11.98,6.57c1.96,2.53,3.46,6.68,3.46,10.25c0,8.18-0.23,17.51-0.35,24.88
			l5.99,0.23c0,3.11-0.12,6.57-0.23,9.68c-4.03,0-9.79,0-14.17,0c-4.84,0-10.14,0.12-14.17,0.12c0-3.11,0-6.68,0-9.68l4.03-0.35
			c0.23,0,0.46-0.23,0.46-0.46c0-5.99,0-14.05,0-19.81c0-2.07-0.12-3.92-0.81-5.53c-0.92-1.84-2.42-2.53-4.49-2.53
			c-2.3,0-5.76,1.38-8.06,2.76c0,7.37-0.12,18.43-0.23,25.57l4.61,0.23c0,3.11,0,6.57-0.12,9.68c-4.03,0-9.68,0-14.4,0
			c-4.26,0-8.98,0.12-12.32,0.12c0-3.22,0.12-6.68,0.12-9.68l4.15-0.35c0.34-0.12,0.46-0.34,0.46-0.58c0-5.76,0-13.94,0-20.73
			c0-1.96-0.12-3.8-0.81-5.18c-0.69-1.61-2.19-2.07-3.92-2.07c-2.3,0-6.1,1.5-8.52,3.34c-0.12,6.68-0.23,18.43-0.23,25.23l4.61,0.23
			c0,3.11,0,6.57,0,9.68c-4.38,0-10.02,0-14.86,0c-4.38,0-10.02,0-14.28,0c0-3.11,0-6.68,0.12-9.68l5.76-0.23
			c0.35,0,0.46-0.23,0.46-0.58v-28.34L-457.57,418.2z"/>
		<path class="st1" d="M-333.98,405.41c7.14,0,12.55,2.53,15.66,6.1c3.69,4.38,5.87,10.37,5.87,17.74c-0.12,1.73-5.3,6.68-6.22,6.8
			c-2.99,0.34-14.86,0.34-25.11,0.34c0.23,3.8,1.61,5.99,3.11,7.49c2.65,2.53,5.64,2.76,8.64,2.76c4.95,0,12.44-1.84,16.24-3.22
			c0.81,2.99,1.73,6.68,2.19,9.56c-6.8,3.11-16.93,5.41-22.46,5.41c-15.32,0-26.95-7.49-26.95-23.73
			C-363.01,418.31-351.26,405.41-333.98,405.41z M-341.7,418.08c-1.38,2.3-2.19,4.49-2.07,9.1c4.03,0,9.68-0.12,13.02-0.23
			c0.69,0,1.04-0.46,1.04-1.27c0-2.42-0.46-5.41-1.27-7.14c-1.04-2.07-2.76-3.46-5.18-3.46
			C-338.13,415.09-340.09,415.55-341.7,418.08z"/>
		<path class="st1" d="M-311.52,418.31c0-3.22,0.12-6.57,0.12-9.44c5.76-0.46,22.81-3.34,23.5-3.34c0.23,0,0.23,0.12,0.23,0.23
			c0.58,2.42,1.04,4.84,1.61,7.26l0.58,0.12c11.17-6.91,13.71-7.72,19.01-7.72c4.95,0,9.68,4.38,11.98,8.29
			c2.19,3.57,2.65,7.14,2.65,10.25c0,6.57-0.34,16.13-0.46,23.5l5.76,0.23c0,3.11,0,6.57-0.12,9.56c-4.38,0-10.02,0-14.86,0
			c-4.95,0-10.37,0.12-14.4,0.12c0-3.11,0-6.56,0.12-9.56l4.61-0.23c0.23-0.12,0.35-0.23,0.46-0.58c0.12-4.61,0-11.06,0-15.55
			c-0.12-5.3-0.12-8.06-0.92-9.79c-1.15-2.19-2.65-2.53-4.38-2.53c-2.53,0-6.45,1.84-9.21,4.03c-0.12,6.68-0.35,17.74-0.35,24.3
			l4.95,0.35c0,3.11,0,6.45-0.12,9.44c-4.03,0-9.79,0-14.4,0c-4.84,0-10.71,0.12-15.2,0.12c0-3.11,0-6.56,0.12-9.56l5.64-0.23
			c0.35-0.12,0.46-0.35,0.46-0.58v-28.45L-311.52,418.31z"/>
		<path class="st1" d="M-235.62,454.94c-3.69-3.22-4.03-5.87-4.03-9.1c0-6.45,0.12-12.32,0.12-13.71c0-2.42,0.12-13.59,0.12-15.09
			c-1.96,0-5.18,0-8.06,0c0-3.22,0.12-6.68,0.35-9.79c2.42-0.23,5.18-0.46,7.49-0.69c0.46,0,0.81-0.35,0.81-0.92
			c0.34-2.99,0.58-6.8,0.92-9.56c5.76-2.88,16.82-6.1,17.16-6.1c0.23,0,0.35,0.12,0.35,0.46c-0.12,2.53-0.23,13.02-0.35,16.13
			c5.87,0,12.32,0,17.74-0.12c0,3.34-0.12,7.26-0.46,10.71c-4.84,0-11.98-0.12-17.28-0.12c0,1.04-0.12,3.34-0.12,9.68
			c0,4.72,0,9.22,0,14.4c0,3.23,2.76,5.18,5.3,5.18c4.61,0,8.98-0.81,12.56-1.73c0.58,3.11,1.04,6.68,1.27,9.68
			c-7.95,3.11-16.36,4.15-24.88,4.15C-229.74,458.4-232.62,457.59-235.62,454.94z"/>
	</g>
</g>
<g>
	<defs>
		<polygon id="SVGID_00000016061406469928730270000008645926943203237259_" points="-557.27,376.42 -557.27,236.6 714.78,236.6 
			714.78,404.86 		"/>
	</defs>
	<clipPath id="SVGID_00000171705781911487573110000004108232137943986077_">
		<use xlink:href="#SVGID_00000016061406469928730270000008645926943203237259_"  style="overflow:visible;"/>
	</clipPath>
	<g style="clip-path:url(#SVGID_00000171705781911487573110000004108232137943986077_);">
		<path class="st1" d="M-465.48,283.81c10.65,0,25.73,2.96,32.83,7.1c0,9.17-9.17,29.88-15.08,33.13
			c-3.85-1.48-18.93-8.87-30.76-8.87c-6.51,0-12.13,2.07-16.56,9.17c-4.44,7.69-5.92,16.56-5.92,29.87c0,14.2,3.84,22.18,9.17,28.4
			c5.03,5.92,13.9,7.1,19.82,7.1c11.83,0,25.44-4.44,34.31-7.99c2.07,7.69,4.44,16.56,5.62,23.66
			c-19.23,10.35-42.59,14.49-54.72,14.49c-36.38,0-64.19-22.48-64.19-58.86C-550.96,319-517.84,283.81-465.48,283.81z"/>
		<path class="st1" d="M-413.43,405.67c-13.61-11.54-21.89-27.51-21.89-50.28c0-23.37,10.35-44.37,28.1-57.38
			c13.01-9.76,30.76-14.2,48.51-14.2c15.68,0,28.99,3.55,40.52,10.65c15.09,9.76,26.62,28.4,26.62,54.72
			c0,26.03-14.2,48.21-31.65,59.45c-11.53,7.4-26.32,11.24-43.18,11.24C-383.85,419.87-401.6,415.73-413.43,405.67z M-349.83,389.7
			c5.62-7.69,7.1-19.52,7.1-39.34c0-18.04-2.37-27.21-5.32-34.31c-3.25-6.21-8.58-9.17-13.9-9.17c-5.32,0-10.06,2.07-13.9,7.4
			c-4.73,7.1-7.69,18.34-7.69,36.38c0,21.89,2.66,31.94,6.8,38.16c3.85,5.92,8.28,7.99,13.61,7.99
			C-358.12,396.8-353.38,395.32-349.83,389.7z"/>
		<path class="st1" d="M-282.32,358.34c0.3-8.87,0.59-18.04,0.89-26.62c14.79,0,28.99,0,43.48-0.3c15.09-0.3,31.35-0.3,44.66-0.59
			c0,8.58-0.3,18.93-1.18,27.8c-12.72,0-31.06,0-45.26,0C-251.56,358.64-269.6,358.34-282.32,358.34z"/>
	</g>
</g>
<g>
	<path class="st1" d="M76.13,325.41c-0.18,0.09-1.76,0.34-2.94,0.34c-0.27-0.2-0.52-0.47-0.82-0.9h-0.09
		c-1.47,0.84-1.81,0.9-2.53,0.9c-1.09,0-2.45-1.43-2.45-2.53c0-1.36,0.02-2.78,0.04-3.94l-0.81-0.04c0-0.48,0.02-1,0.04-1.47
		c0.73-0.04,3.39-0.11,3.62-0.12c0.04,0,0.05,0.04,0.05,0.07c0,1.25-0.05,2.83-0.05,4.14c0,0.52-0.02,1.15,0.21,1.54
		c0.21,0.34,0.47,0.36,0.7,0.36c0.3,0,0.73-0.13,1.07-0.38c0.02-1.22,0-3.01,0-4.09l-0.88-0.04c0.02-0.5,0.02-1.06,0.04-1.52
		c0.66-0.02,3.49-0.07,3.76-0.07c0.02,0,0.04,0.05,0.04,0.07c-0.02,1.9-0.05,4.05-0.05,6.11c0,0.07,0.02,0.11,0.07,0.11l1-0.04
		C76.15,324.39,76.13,324.95,76.13,325.41z"/>
	<path class="st1" d="M76.65,319.5c0-0.47,0.02-1,0.02-1.45c0.82-0.11,3.53-0.52,3.64-0.52c0.02,0,0.04,0.02,0.04,0.04
		c0.07,0.34,0.11,0.68,0.16,1.02l0.07,0.02c1.65-0.97,1.95-1.09,2.69-1.09c0.95,0,1.67,0.93,1.83,1.16h0.09
		c1.77-1.02,2.1-1.13,2.78-1.13c0.77,0,1.4,0.43,1.86,1.02c0.3,0.39,0.54,1.04,0.54,1.59c0,1.27-0.04,2.72-0.05,3.87l0.93,0.04
		c0,0.48-0.02,1.02-0.04,1.51c-0.63,0-1.52,0-2.2,0c-0.75,0-1.58,0.02-2.2,0.02c0-0.48,0-1.04,0-1.51l0.63-0.05
		c0.04,0,0.07-0.04,0.07-0.07c0-0.93,0-2.19,0-3.08c0-0.32-0.02-0.61-0.13-0.86c-0.14-0.29-0.38-0.39-0.7-0.39
		c-0.36,0-0.9,0.21-1.25,0.43c0,1.15-0.02,2.87-0.04,3.98l0.72,0.04c0,0.48,0,1.02-0.02,1.51c-0.63,0-1.51,0-2.24,0
		c-0.66,0-1.4,0.02-1.92,0.02c0-0.5,0.02-1.04,0.02-1.51l0.65-0.05c0.05-0.02,0.07-0.05,0.07-0.09c0-0.9,0-2.17,0-3.22
		c0-0.3-0.02-0.59-0.13-0.81c-0.11-0.25-0.34-0.32-0.61-0.32c-0.36,0-0.95,0.23-1.33,0.52c-0.02,1.04-0.04,2.87-0.04,3.92l0.72,0.04
		c0,0.48,0,1.02,0,1.51c-0.68,0-1.56,0-2.31,0c-0.68,0-1.56,0-2.22,0c0-0.48,0-1.04,0.02-1.51l0.9-0.04c0.05,0,0.07-0.04,0.07-0.09
		v-4.41L76.65,319.5z"/>
	<path class="st1" d="M91.63,319.55c0-0.48,0.04-1.06,0.04-1.52c0.9-0.13,4.08-0.52,4.21-0.52c0.04,0,0.04,0.02,0.04,0.05
		c0,2.06-0.02,4.68-0.02,6.75c-0.02,1.15-0.11,1.68-0.52,2.54c-0.63,1.38-1.65,2.78-2.78,3.35c-0.59,0-1.72-0.88-1.77-1.38
		c0.65-0.32,1.34-0.74,1.65-1.27c0.38-0.68,0.56-1.49,0.54-3.4l-0.04-4.55L91.63,319.55z M95.72,314.75c0,0.98-0.7,1.65-1.68,1.65
		c-0.73,0-1.58-0.65-1.58-1.58c0-0.77,0.68-1.52,1.67-1.52C95.2,313.3,95.72,314.05,95.72,314.75z"/>
	<path class="st1" d="M101.88,317.51c1.11,0,1.95,0.39,2.44,0.95c0.57,0.68,0.91,1.61,0.91,2.76c-0.02,0.27-0.82,1.04-0.97,1.06
		c-0.47,0.05-2.31,0.05-3.91,0.05c0.04,0.59,0.25,0.93,0.48,1.16c0.41,0.39,0.88,0.43,1.34,0.43c0.77,0,1.93-0.29,2.53-0.5
		c0.13,0.47,0.27,1.04,0.34,1.49c-1.06,0.48-2.63,0.84-3.49,0.84c-2.38,0-4.19-1.16-4.19-3.69
		C97.37,319.52,99.19,317.51,101.88,317.51z M100.68,319.48c-0.21,0.36-0.34,0.7-0.32,1.42c0.63,0,1.51-0.02,2.02-0.04
		c0.11,0,0.16-0.07,0.16-0.2c0-0.38-0.07-0.84-0.2-1.11c-0.16-0.32-0.43-0.54-0.81-0.54C101.24,319.02,100.93,319.09,100.68,319.48z
		"/>
	<path class="st1" d="M107.67,325.22c-0.57-0.5-0.63-0.91-0.63-1.42c0-1,0.02-1.92,0.02-2.13c0-0.38,0.02-2.11,0.02-2.35
		c-0.3,0-0.81,0-1.25,0c0-0.5,0.02-1.04,0.05-1.52c0.38-0.04,0.81-0.07,1.16-0.11c0.07,0,0.13-0.05,0.13-0.14
		c0.05-0.47,0.09-1.06,0.14-1.49c0.9-0.45,2.62-0.95,2.67-0.95c0.04,0,0.05,0.02,0.05,0.07c-0.02,0.39-0.04,2.02-0.05,2.51
		c0.91,0,1.92,0,2.76-0.02c0,0.52-0.02,1.13-0.07,1.67c-0.75,0-1.86-0.02-2.69-0.02c0,0.16-0.02,0.52-0.02,1.51
		c0,0.73,0,1.43,0,2.24c0,0.5,0.43,0.81,0.82,0.81c0.72,0,1.4-0.12,1.95-0.27c0.09,0.48,0.16,1.04,0.2,1.51
		c-1.24,0.48-2.54,0.65-3.87,0.65C108.58,325.75,108.14,325.63,107.67,325.22z"/>
	<path class="st1" d="M113.41,319.52c0-0.5,0.02-1.02,0.02-1.47c0.9-0.07,3.55-0.52,3.66-0.52c0.04,0,0.04,0.02,0.04,0.04
		c0.09,0.38,0.16,0.75,0.25,1.13l0.09,0.02c1.74-1.08,2.13-1.2,2.96-1.2c0.77,0,1.51,0.68,1.86,1.29c0.34,0.56,0.41,1.11,0.41,1.59
		c0,1.02-0.05,2.51-0.07,3.65l0.9,0.04c0,0.48,0,1.02-0.02,1.49c-0.68,0-1.56,0-2.31,0c-0.77,0-1.61,0.02-2.24,0.02
		c0-0.48,0-1.02,0.02-1.49l0.72-0.04c0.04-0.02,0.05-0.04,0.07-0.09c0.02-0.72,0-1.72,0-2.42c-0.02-0.82-0.02-1.25-0.14-1.52
		c-0.18-0.34-0.41-0.39-0.68-0.39c-0.39,0-1,0.29-1.43,0.63c-0.02,1.04-0.05,2.76-0.05,3.78l0.77,0.05c0,0.48,0,1-0.02,1.47
		c-0.63,0-1.52,0-2.24,0c-0.75,0-1.67,0.02-2.37,0.02c0-0.48,0-1.02,0.02-1.49l0.88-0.04c0.05-0.02,0.07-0.05,0.07-0.09v-4.43
		L113.41,319.52z"/>
	<path class="st1" d="M124.12,319.52c0-0.48,0.02-1.04,0.04-1.52c0.97-0.07,3.87-0.48,4.01-0.48c0.04,0,0.04,0.02,0.04,0.05
		c-0.02,1.93-0.05,4.69-0.05,6.48l0.99,0.04c0,0.5,0,1,0,1.49c-0.68,0-1.7,0-2.47,0c-0.75,0-1.7,0.02-2.44,0.02
		c0-0.48,0-1.02,0.02-1.49l0.95-0.04c0.05-0.02,0.07-0.05,0.07-0.09v-4.41L124.12,319.52z M128.15,314.84
		c0,0.97-0.79,1.61-1.68,1.61c-0.77,0-1.56-0.66-1.56-1.58c0-0.75,0.66-1.49,1.65-1.49C127.6,313.39,128.15,314.09,128.15,314.84z"
		/>
	<path class="st1" d="M135,317.51c0.65,0,1.56,0.18,1.99,0.43c0,0.56-0.56,1.81-0.91,2.01c-0.23-0.09-1.15-0.54-1.86-0.54
		c-0.39,0-0.73,0.13-1,0.56c-0.27,0.47-0.36,1-0.36,1.81c0,0.86,0.23,1.34,0.56,1.72c0.3,0.36,0.84,0.43,1.2,0.43
		c0.72,0,1.54-0.27,2.08-0.48c0.13,0.47,0.27,1,0.34,1.43c-1.16,0.63-2.58,0.88-3.31,0.88c-2.2,0-3.89-1.36-3.89-3.57
		C129.82,319.64,131.83,317.51,135,317.51z M136.13,313.25c0.29,0.21,0.61,0.52,0.84,0.79c-0.63,0.7-1.54,1.79-2.19,2.53
		c-0.34,0-0.79,0-1.15-0.02c-0.66-0.79-1.45-1.7-2.17-2.51c0.29-0.29,0.61-0.56,0.91-0.77c0.56,0.54,1.2,1.13,1.85,1.72
		C134.89,314.39,135.55,313.77,136.13,313.25z"/>
	<path class="st1" d="M137.53,324.11l0.88-0.05c0.04,0,0.05-0.05,0.05-0.07c0-2.74,0.02-6.23,0.02-8.92l-1.15-0.04
		c0-0.48,0.02-1.02,0.02-1.49c1-0.13,3.87-0.5,4.05-0.5c0.04,0,0.05,0.02,0.05,0.07c0,2.08-0.04,4.73-0.05,7.52
		c0.3,0,0.63-0.02,0.95-0.05c0.3-0.27,0.77-0.72,1.24-1.27c0.04-0.04,0-0.05-0.04-0.05l-0.66-0.04c0-0.5,0-1.04,0.02-1.52
		c0.81,0,1.74,0,2.51,0c0.5-0.02,1.06-0.02,1.56-0.02c0,0.48-0.02,1.02-0.04,1.51l-0.65,0.05c-0.9,0.73-1.49,1.24-1.97,1.61v0.13
		c0.36,0.23,0.84,0.61,1.27,1.67c0.23,0.56,0.45,1.02,0.57,1.25c0.07,0.11,0.18,0.16,0.27,0.16l0.9,0.04c0,0.48,0,1.02-0.02,1.49
		c-0.66,0-3.33,0.04-3.57,0.04c-0.23-0.47-0.47-1.2-0.77-2.11c-0.27-0.81-0.61-1.45-0.9-1.45c-0.21,0-0.45,0-0.68,0
		c-0.02,0.57-0.02,1.43-0.04,2.01l0.66,0.05c0,0.48,0,1-0.02,1.47c-0.59,0-1.47,0-2.2,0c-0.73,0-1.58,0.02-2.31,0.02
		C137.49,325.11,137.51,324.57,137.53,324.11z"/>
	<path class="st1" d="M152.67,324.96c-1.07,0.54-1.92,0.79-2.6,0.79c-0.95,0-2.33-0.95-2.33-2.08c0-1,1.18-2.71,4.03-2.71
		c0.39,0,0.68,0,0.86,0c0.05-0.9-0.27-1.42-1.07-1.42c-0.61,0-1.56,0.5-2.26,1c-0.34-0.39-0.66-0.84-0.95-1.29
		c1.29-1.04,2.63-1.76,4.34-1.76c1.38,0,2.74,1.16,2.74,2.69c0,1.18-0.02,2.87-0.04,3.64c0,0.11,0,0.14,0.09,0.14l0.95-0.05
		c0,0.47,0.02,1,0,1.47c-0.29,0.11-1.56,0.36-2.99,0.36c-0.18-0.16-0.41-0.45-0.68-0.79H152.67z M151.41,324.03
		c0.47,0,0.93-0.23,1.2-0.39c0.04-0.04,0.04-0.09,0.04-0.11c0-0.43,0-0.77,0-1.24c-0.11-0.02-0.25-0.02-0.38-0.02
		c-1.16,0-1.68,0.52-1.68,1.06C150.59,323.76,151.05,324.03,151.41,324.03z"/>
</g>
<g>
	<path class="st1" d="M161.33,324.77c-0.82-0.7-1.33-1.67-1.33-3.05c0-1.42,0.63-2.69,1.7-3.47c0.79-0.59,1.86-0.86,2.94-0.86
		c0.95,0,1.76,0.21,2.45,0.64c0.91,0.59,1.61,1.72,1.61,3.31c0,1.58-0.86,2.92-1.92,3.6c-0.7,0.45-1.59,0.68-2.62,0.68
		C163.12,325.63,162.05,325.38,161.33,324.77z M165.18,323.8c0.34-0.47,0.43-1.18,0.43-2.38c0-1.09-0.14-1.65-0.32-2.08
		c-0.2-0.38-0.52-0.56-0.84-0.56s-0.61,0.13-0.84,0.45c-0.29,0.43-0.47,1.11-0.47,2.2c0,1.33,0.16,1.93,0.41,2.31
		c0.23,0.36,0.5,0.48,0.82,0.48C164.68,324.23,164.97,324.14,165.18,323.8z"/>
	<path class="st1" d="M169.68,324l0.84-0.04c0.05-0.02,0.07-0.04,0.07-0.07c0-1.45,0-3.12,0-4.52l-1.06-0.05
		c0-0.48,0.02-1,0.04-1.47c0.81-0.09,3.48-0.47,3.57-0.47c0.02,0,0.04,0,0.04,0.04c0.05,0.77,0.13,1.52,0.18,2.29l0.11,0.02
		c1.11-2.11,1.52-2.35,2.42-2.35c0.45,0,0.93,0.11,1.29,0.23c0,0.84-0.5,2.29-0.84,2.6c-0.16-0.04-0.7-0.18-1.13-0.18
		c-0.18,0-0.34,0.02-0.52,0.16c-0.32,0.27-0.59,0.59-0.93,1.24c-0.21,0.43-0.25,1-0.27,1.51c0,0.3,0,0.72,0,0.98l1.47,0.05
		c0,0.48,0,0.98-0.04,1.47c-0.75,0-1.86,0-2.71,0c-0.79,0-1.79,0.02-2.54,0.02C169.66,324.98,169.66,324.45,169.68,324z"/>
	<path class="st1" d="M179.5,323.25c-0.82-0.36-1.93-1.2-1.93-2.58c0-1.93,1.92-3.28,4.17-3.28c0.79,0,1.54,0.11,1.74,0.14
		c0.18,0.04,0.3,0.07,0.39,0.05c0.84-0.04,2.22-0.11,2.69-0.14c0.05,0.5,0.05,1.11,0.02,1.61c-0.36,0.02-1,0.02-1.43,0.02
		l-0.04,0.07c0.21,0.29,0.38,0.77,0.38,1.29c0,0.61-0.23,1.38-0.81,1.99c-0.59,0.59-1.74,1.16-3.6,1.11
		c-0.23,0.2-0.38,0.43-0.38,0.59c0,0.38,0.34,0.43,1.79,0.48c1.95,0.05,2.49,0.14,3.15,0.61c0.61,0.43,0.84,0.77,0.84,1.67
		c0,1.18-0.9,2.2-2.38,2.72c-0.86,0.32-1.93,0.48-3.06,0.48c-2.53,0-4.03-0.77-4.03-2.13c0-0.23,0.11-0.38,0.38-0.56
		c0.79-0.54,1.29-0.82,1.7-1.09v-0.11c-0.68-0.29-1.36-0.63-1.36-1.63c0-0.2,0.07-0.25,1.77-1.2V323.25z M182.33,326.77
		c-0.84-0.05-1.49-0.13-1.86-0.14c-0.3,0.38-0.48,0.7-0.48,1.15c0,0.63,0.77,0.95,1.63,0.95c0.59,0,1.15-0.11,1.51-0.34
		c0.34-0.2,0.52-0.54,0.52-0.91C183.64,326.99,183.44,326.85,182.33,326.77z M181.58,322.24c0.65,0,1.02-0.61,1.02-1.93
		c0-0.63-0.07-0.95-0.27-1.29c-0.14-0.27-0.45-0.36-0.75-0.36c-0.65,0-1.09,0.65-1.09,1.74
		C180.49,321.87,180.95,322.24,181.58,322.24z"/>
	<path class="st1" d="M191.71,324.84c-1.08,0.54-1.92,0.79-2.6,0.79c-0.95,0-2.33-0.95-2.33-2.08c0-1,1.18-2.71,4.03-2.71
		c0.39,0,0.68,0,0.86,0c0.05-0.9-0.27-1.42-1.07-1.42c-0.61,0-1.56,0.5-2.26,1c-0.34-0.39-0.66-0.84-0.95-1.29
		c1.29-1.04,2.63-1.76,4.34-1.76c1.38,0,2.74,1.16,2.74,2.69c0,1.18-0.02,2.87-0.04,3.64c0,0.11,0,0.14,0.09,0.14l0.95-0.05
		c0,0.47,0.02,1,0,1.47c-0.29,0.11-1.56,0.36-2.99,0.36c-0.18-0.16-0.41-0.45-0.68-0.79H191.71z M190.45,323.91
		c0.47,0,0.93-0.23,1.2-0.39c0.04-0.04,0.04-0.09,0.04-0.11c0-0.43,0-0.77,0-1.24c-0.11-0.02-0.25-0.02-0.38-0.02
		c-1.16,0-1.68,0.52-1.68,1.06C189.63,323.64,190.09,323.91,190.45,323.91z"/>
	<path class="st1" d="M195.95,319.39c0-0.5,0.02-1.02,0.02-1.47c0.9-0.07,3.55-0.52,3.66-0.52c0.04,0,0.04,0.02,0.04,0.04
		c0.09,0.38,0.16,0.75,0.25,1.13l0.09,0.02c1.74-1.08,2.13-1.2,2.96-1.2c0.77,0,1.51,0.68,1.86,1.29c0.34,0.56,0.41,1.11,0.41,1.59
		c0,1.02-0.05,2.51-0.07,3.65l0.9,0.04c0,0.48,0,1.02-0.02,1.49c-0.68,0-1.56,0-2.31,0c-0.77,0-1.61,0.02-2.24,0.02
		c0-0.48,0-1.02,0.02-1.49l0.72-0.04c0.04-0.02,0.05-0.04,0.07-0.09c0.02-0.72,0-1.72,0-2.42c-0.02-0.82-0.02-1.25-0.14-1.52
		c-0.18-0.34-0.41-0.39-0.68-0.39c-0.39,0-1,0.29-1.43,0.63c-0.02,1.04-0.05,2.76-0.05,3.78l0.77,0.05c0,0.48,0,1-0.02,1.47
		c-0.63,0-1.52,0-2.24,0c-0.75,0-1.67,0.02-2.37,0.02c0-0.48,0-1.02,0.02-1.49l0.88-0.04c0.05-0.02,0.07-0.05,0.07-0.09v-4.43
		L195.95,319.39z"/>
	<path class="st1" d="M206.67,319.39c0-0.48,0.02-1.04,0.04-1.52c0.97-0.07,3.87-0.48,4.01-0.48c0.04,0,0.04,0.02,0.04,0.05
		c-0.02,1.93-0.05,4.69-0.05,6.48l0.99,0.04c0,0.5,0,1,0,1.49c-0.68,0-1.7,0-2.47,0c-0.75,0-1.7,0.02-2.44,0.02
		c0-0.48,0-1.02,0.02-1.49l0.95-0.04c0.05-0.02,0.07-0.05,0.07-0.09v-4.41L206.67,319.39z M210.7,314.72c0,0.97-0.79,1.61-1.68,1.61
		c-0.77,0-1.56-0.66-1.56-1.58c0-0.75,0.66-1.49,1.65-1.49C210.14,313.27,210.7,313.96,210.7,314.72z"/>
	<path class="st1" d="M220.38,322.55c-0.21,0.95-0.47,1.95-0.72,2.92c-0.29,0-2.02-0.02-3.22-0.02h-2.28c-0.27,0-1.27,0-1.58,0
		c-0.14-0.38-0.32-0.93-0.45-1.34c1.59-1.72,2.88-3.01,4.8-4.98l-0.02-0.07c-0.38,0-1.52-0.02-1.85-0.02s-0.39,0.12-0.47,0.29
		l-0.52,1.42c-0.57-0.09-1.16-0.2-1.65-0.3c0.18-0.97,0.38-1.95,0.59-2.9c0.2,0,0.86,0.02,1.97,0.04c1.4,0,3.05,0,4.68,0
		c0.2,0.61,0.38,1.31,0.48,1.92c-0.73,0.88-3.8,3.71-4.53,4.39l0.04,0.07c0.34,0,1.02,0,1.92-0.02c0.32-0.02,0.54-0.14,0.63-0.34
		l0.57-1.42C219.34,322.28,219.89,322.42,220.38,322.55z"/>
	<path class="st1" d="M226.06,324.84c-1.08,0.54-1.92,0.79-2.6,0.79c-0.95,0-2.33-0.95-2.33-2.08c0-1,1.18-2.71,4.03-2.71
		c0.39,0,0.68,0,0.86,0c0.05-0.9-0.27-1.42-1.07-1.42c-0.61,0-1.56,0.5-2.26,1c-0.34-0.39-0.66-0.84-0.95-1.29
		c1.29-1.04,2.63-1.76,4.34-1.76c1.38,0,2.74,1.16,2.74,2.69c0,1.18-0.02,2.87-0.04,3.64c0,0.11,0,0.14,0.09,0.14l0.95-0.05
		c0,0.47,0.02,1,0,1.47c-0.29,0.11-1.56,0.36-2.99,0.36c-0.18-0.16-0.41-0.45-0.68-0.79H226.06z M224.8,323.91
		c0.47,0,0.93-0.23,1.2-0.39c0.04-0.04,0.04-0.09,0.04-0.11c0-0.43,0-0.77,0-1.24c-0.11-0.02-0.25-0.02-0.38-0.02
		c-1.16,0-1.68,0.52-1.68,1.06C223.98,323.64,224.44,323.91,224.8,323.91z"/>
	<path class="st1" d="M235.63,317.39c0.65,0,1.56,0.18,1.99,0.43c0,0.56-0.56,1.81-0.91,2.01c-0.23-0.09-1.15-0.54-1.86-0.54
		c-0.39,0-0.73,0.13-1,0.56c-0.27,0.47-0.36,1-0.36,1.81c0,0.86,0.23,1.34,0.56,1.72c0.3,0.36,0.84,0.43,1.2,0.43
		c0.72,0,1.54-0.27,2.08-0.48c0.13,0.47,0.27,1,0.34,1.43c-1.16,0.63-2.58,0.88-3.31,0.88c-2.2,0-3.89-1.36-3.89-3.57
		C230.45,319.52,232.46,317.39,235.63,317.39z"/>
	<path class="st1" d="M238.17,319.39c0-0.48,0.02-1.04,0.04-1.52c0.97-0.07,3.87-0.48,4.01-0.48c0.04,0,0.04,0.02,0.04,0.05
		c-0.02,1.93-0.05,4.69-0.05,6.48l0.99,0.04c0,0.5,0,1,0,1.49c-0.68,0-1.7,0-2.47,0c-0.75,0-1.7,0.02-2.44,0.02
		c0-0.48,0-1.02,0.02-1.49l0.95-0.04c0.05-0.02,0.07-0.05,0.07-0.09v-4.41L238.17,319.39z M242.2,314.72c0,0.97-0.79,1.61-1.68,1.61
		c-0.77,0-1.56-0.66-1.56-1.58c0-0.75,0.66-1.49,1.65-1.49C241.65,313.27,242.2,313.96,242.2,314.72z"/>
	<path class="st1" d="M243.58,319.43c0-0.48,0.04-1.06,0.04-1.52c0.9-0.13,4.08-0.52,4.21-0.52c0.04,0,0.04,0.02,0.04,0.05
		c0,2.06-0.02,4.68-0.02,6.75c-0.02,1.15-0.11,1.68-0.52,2.54c-0.63,1.38-1.65,2.78-2.78,3.35c-0.59,0-1.72-0.88-1.77-1.38
		c0.64-0.32,1.34-0.74,1.65-1.27c0.38-0.68,0.56-1.49,0.54-3.4l-0.04-4.55L243.58,319.43z M247.67,314.63c0,0.98-0.7,1.65-1.68,1.65
		c-0.73,0-1.58-0.65-1.58-1.58c0-0.77,0.68-1.52,1.67-1.52C247.15,313.18,247.67,313.93,247.67,314.63z"/>
	<path class="st1" d="M254.05,324.84c-1.07,0.54-1.92,0.79-2.6,0.79c-0.95,0-2.33-0.95-2.33-2.08c0-1,1.18-2.71,4.03-2.71
		c0.39,0,0.68,0,0.86,0c0.05-0.9-0.27-1.42-1.07-1.42c-0.61,0-1.56,0.5-2.26,1c-0.34-0.39-0.66-0.84-0.95-1.29
		c1.29-1.04,2.63-1.76,4.34-1.76c1.38,0,2.74,1.16,2.74,2.69c0,1.18-0.02,2.87-0.04,3.64c0,0.11,0,0.14,0.09,0.14l0.95-0.05
		c0,0.47,0.02,1,0,1.47c-0.29,0.11-1.56,0.36-2.99,0.36c-0.18-0.16-0.41-0.45-0.68-0.79H254.05z M252.79,323.91
		c0.47,0,0.93-0.23,1.2-0.39c0.04-0.04,0.04-0.09,0.04-0.11c0-0.43,0-0.77,0-1.24c-0.11-0.02-0.25-0.02-0.38-0.02
		c-1.16,0-1.68,0.52-1.68,1.06C251.97,323.64,252.43,323.91,252.79,323.91z"/>
</g>
<g>
	<defs>
		<polygon id="SVGID_00000070088123350401639530000014960181446819644604_" points="66.75,382.6 66.75,318.54 649.52,318.54 
			649.52,395.63 		"/>
	</defs>
	<clipPath id="SVGID_00000076585890435351725380000001778697322812485249_">
		<use xlink:href="#SVGID_00000070088123350401639530000014960181446819644604_"  style="overflow:visible;"/>
	</clipPath>
	<g style="clip-path:url(#SVGID_00000076585890435351725380000001778697322812485249_);">
		<path class="st1" d="M108.8,340.17c4.88,0,11.79,1.36,15.04,3.25c0,4.2-4.2,13.69-6.91,15.18c-1.76-0.68-8.67-4.07-14.09-4.07
			c-2.98,0-5.56,0.95-7.59,4.2c-2.03,3.52-2.71,7.59-2.71,13.69c0,6.5,1.76,10.16,4.2,13.01c2.3,2.71,6.37,3.25,9.08,3.25
			c5.42,0,11.65-2.03,15.72-3.66c0.95,3.52,2.03,7.59,2.57,10.84c-8.81,4.74-19.51,6.64-25.07,6.64c-16.67,0-29.41-10.3-29.41-26.97
			C69.64,356.3,84.81,340.17,108.8,340.17z"/>
		<path class="st1" d="M132.65,396c-6.23-5.29-10.03-12.6-10.03-23.04c0-10.71,4.74-20.33,12.87-26.29
			c5.96-4.47,14.09-6.5,22.22-6.5c7.18,0,13.28,1.63,18.56,4.88c6.91,4.47,12.2,13.01,12.2,25.07c0,11.92-6.5,22.09-14.5,27.24
			c-5.28,3.39-12.06,5.15-19.78,5.15C146.2,402.5,138.07,400.61,132.65,396z M161.78,388.68c2.57-3.52,3.25-8.94,3.25-18.02
			c0-8.27-1.08-12.47-2.44-15.72c-1.49-2.85-3.93-4.2-6.37-4.2c-2.44,0-4.61,0.95-6.37,3.39c-2.17,3.25-3.52,8.4-3.52,16.67
			c0,10.03,1.22,14.64,3.12,17.48c1.76,2.71,3.79,3.66,6.23,3.66C157.99,391.93,160.15,391.26,161.78,388.68z"/>
		<path class="st1" d="M192.71,374.32c0.14-4.07,0.27-8.27,0.41-12.2c6.78,0,13.28,0,19.92-0.14c6.91-0.14,14.36-0.14,20.46-0.27
			c0,3.93-0.14,8.67-0.54,12.74c-5.83,0-14.23,0-20.73,0C206.8,374.45,198.54,374.32,192.71,374.32z"/>
		<path class="st1" d="M234.95,355.21c0-3.52,0.13-7.59,0.13-10.98c6.23-0.81,26.7-3.93,27.51-3.93c0.14,0,0.27,0.14,0.27,0.27
			c0.54,2.57,0.81,5.15,1.22,7.72l0.54,0.14c12.47-7.32,14.77-8.27,20.33-8.27c7.18,0,12.6,7.05,13.82,8.81h0.68
			c13.42-7.72,15.85-8.54,21-8.54c5.83,0,10.57,3.25,14.09,7.72c2.3,2.98,4.07,7.86,4.07,12.06c0,9.62-0.27,20.6-0.41,29.27
			l7.05,0.27c0,3.66-0.14,7.72-0.27,11.38c-4.74,0-11.52,0-16.67,0c-5.69,0-11.92,0.14-16.67,0.14c0-3.66,0-7.86,0-11.38l4.74-0.41
			c0.27,0,0.54-0.27,0.54-0.54c0-7.05,0-16.53,0-23.31c0-2.44-0.14-4.61-0.95-6.5c-1.08-2.17-2.85-2.98-5.29-2.98
			c-2.71,0-6.78,1.63-9.49,3.25c0,8.67-0.14,21.68-0.27,30.08l5.42,0.27c0,3.66,0,7.72-0.14,11.38c-4.74,0-11.38,0-16.94,0
			c-5.01,0-10.57,0.14-14.5,0.14c0-3.79,0.14-7.86,0.14-11.38l4.88-0.41c0.41-0.14,0.54-0.41,0.54-0.68c0-6.78,0-16.4,0-24.39
			c0-2.3-0.14-4.47-0.95-6.1c-0.81-1.9-2.57-2.44-4.61-2.44c-2.71,0-7.18,1.76-10.03,3.93c-0.14,7.86-0.27,21.68-0.27,29.68
			l5.42,0.27c0,3.66,0,7.72,0,11.38c-5.15,0-11.79,0-17.48,0c-5.15,0-11.79,0-16.8,0c0-3.66,0-7.86,0.14-11.38l6.78-0.27
			c0.41,0,0.54-0.27,0.54-0.68v-33.34L234.95,355.21z"/>
		<path class="st1" d="M345.66,355.21c0-3.52,0.13-7.59,0.13-10.98c6.23-0.81,26.7-3.93,27.51-3.93c0.14,0,0.27,0.14,0.27,0.27
			c0.54,2.57,0.81,5.15,1.22,7.72l0.54,0.14c12.47-7.32,14.77-8.27,20.33-8.27c7.18,0,12.6,7.05,13.82,8.81h0.68
			c13.42-7.72,15.85-8.54,21-8.54c5.83,0,10.57,3.25,14.09,7.72c2.3,2.98,4.07,7.86,4.07,12.06c0,9.62-0.27,20.6-0.41,29.27
			l7.05,0.27c0,3.66-0.14,7.72-0.27,11.38c-4.74,0-11.52,0-16.67,0c-5.69,0-11.92,0.14-16.67,0.14c0-3.66,0-7.86,0-11.38l4.74-0.41
			c0.27,0,0.54-0.27,0.54-0.54c0-7.05,0-16.53,0-23.31c0-2.44-0.14-4.61-0.95-6.5c-1.08-2.17-2.85-2.98-5.29-2.98
			c-2.71,0-6.78,1.63-9.49,3.25c0,8.67-0.14,21.68-0.27,30.08l5.42,0.27c0,3.66,0,7.72-0.14,11.38c-4.74,0-11.38,0-16.94,0
			c-5.01,0-10.57,0.14-14.5,0.14c0-3.79,0.14-7.86,0.14-11.38l4.88-0.41c0.41-0.14,0.54-0.41,0.54-0.68c0-6.78,0-16.4,0-24.39
			c0-2.3-0.14-4.47-0.95-6.1c-0.81-1.9-2.57-2.44-4.61-2.44c-2.71,0-7.18,1.76-10.03,3.93c-0.14,7.86-0.27,21.68-0.27,29.68
			l5.42,0.27c0,3.66,0,7.72,0,11.38c-5.15,0-11.79,0-17.48,0c-5.15,0-11.79,0-16.8,0c0-3.66,0-7.86,0.14-11.38l6.78-0.27
			c0.41,0,0.54-0.27,0.54-0.68v-33.34L345.66,355.21z"/>
		<path class="st1" d="M491.05,340.17c8.4,0,14.77,2.98,18.43,7.18c4.34,5.15,6.91,12.2,6.91,20.87c-0.14,2.03-6.23,7.86-7.32,8
			c-3.52,0.41-17.48,0.41-29.54,0.41c0.27,4.47,1.9,7.05,3.66,8.81c3.12,2.98,6.64,3.25,10.16,3.25c5.83,0,14.64-2.17,19.11-3.79
			c0.95,3.52,2.03,7.86,2.57,11.25c-8,3.66-19.92,6.37-26.42,6.37c-18.02,0-31.71-8.81-31.71-27.91
			C456.91,355.35,470.73,340.17,491.05,340.17z M481.98,355.08c-1.63,2.71-2.57,5.28-2.44,10.71c4.74,0,11.38-0.14,15.31-0.27
			c0.81,0,1.22-0.54,1.22-1.49c0-2.85-0.54-6.37-1.49-8.4c-1.22-2.44-3.25-4.07-6.1-4.07C486.18,351.55,483.87,352.09,481.98,355.08
			z"/>
		<path class="st1" d="M517.48,355.35c0-3.79,0.14-7.72,0.14-11.11c6.78-0.54,26.83-3.93,27.64-3.93c0.27,0,0.27,0.14,0.27,0.27
			c0.68,2.85,1.22,5.69,1.9,8.54l0.68,0.14c13.14-8.13,16.13-9.08,22.36-9.08c5.83,0,11.38,5.15,14.09,9.76
			c2.57,4.2,3.12,8.4,3.12,12.06c0,7.72-0.41,18.97-0.54,27.64l6.78,0.27c0,3.66,0,7.72-0.14,11.25c-5.15,0-11.79,0-17.48,0
			c-5.83,0-12.2,0.14-16.94,0.14c0-3.66,0-7.72,0.14-11.25l5.42-0.27c0.27-0.14,0.41-0.27,0.54-0.68c0.14-5.42,0-13.01,0-18.29
			c-0.14-6.23-0.14-9.49-1.08-11.52c-1.36-2.57-3.12-2.98-5.15-2.98c-2.98,0-7.59,2.17-10.84,4.74c-0.14,7.86-0.41,20.87-0.41,28.59
			l5.83,0.41c0,3.66,0,7.59-0.14,11.11c-4.74,0-11.52,0-16.94,0c-5.69,0-12.6,0.14-17.89,0.14c0-3.66,0-7.72,0.14-11.25l6.64-0.27
			c0.41-0.14,0.54-0.41,0.54-0.68v-33.47L517.48,355.35z"/>
		<path class="st1" d="M606.77,398.44c-4.34-3.79-4.74-6.91-4.74-10.7c0-7.59,0.14-14.5,0.14-16.13c0-2.85,0.14-15.99,0.14-17.75
			c-2.3,0-6.1,0-9.49,0c0-3.79,0.14-7.86,0.41-11.52c2.85-0.27,6.1-0.54,8.81-0.81c0.54,0,0.95-0.41,0.95-1.08
			c0.41-3.52,0.68-7.99,1.08-11.25c6.78-3.39,19.78-7.18,20.19-7.18c0.27,0,0.41,0.14,0.41,0.54c-0.14,2.98-0.27,15.31-0.41,18.97
			c6.91,0,14.5,0,20.87-0.14c0,3.93-0.14,8.54-0.54,12.6c-5.69,0-14.09-0.14-20.33-0.14c0,1.22-0.14,3.93-0.14,11.38
			c0,5.56,0,10.84,0,16.94c0,3.79,3.25,6.1,6.23,6.1c5.42,0,10.57-0.95,14.77-2.03c0.68,3.66,1.22,7.86,1.49,11.38
			c-9.35,3.66-19.24,4.88-29.27,4.88C613.68,402.5,610.3,401.56,606.77,398.44z"/>
	</g>
</g>
</svg>
